<svg version="1.1" xmlns="http://www.w3.org/2000/svg" viewBox="0 0 1060 840" width="1060" height="840">
  <!-- svg-source:excalidraw -->
  
  <defs>
    <style>
      @font-face {
        font-family: "Virgil";
        src: url("/dist/excalidraw-assets/Virgil.woff2");
      }
      @font-face {
        font-family: "Cascadia";
        src: url("/dist/excalidraw-assets/Cascadia.woff2");
      }
      @font-face {
        font-family: "GoogleSans_Regular";
        src: url("/dist/excalidraw-assets/GoogleSans_Regular.ttf");
      }
      @font-face {
        font-family: "GoogleSans_Medium";
        src: url("/dist/excalidraw-assets/GoogleSans_Medium.ttf");
      }
    </style>
  </defs>
  <rect x="0" y="0" width="1060" height="840" fill="transparent"></rect><g stroke-linecap="round" transform="translate(10 10) rotate(0 520 410)"><path d="M0 0 L1040 0 L1040 820 L0 820" stroke="none" stroke-width="0" fill="#FFF"></path><path d="M0 0 C302.64 0, 605.28 0, 1040 0 M0 0 C405.91 0, 811.81 0, 1040 0 M1040 0 C1040 224.04, 1040 448.09, 1040 820 M1040 0 C1040 278.94, 1040 557.88, 1040 820 M1040 820 C801 820, 561.99 820, 0 820 M1040 820 C824.69 820, 609.38 820, 0 820 M0 820 C0 564.13, 0 308.26, 0 0 M0 820 C0 587.95, 0 355.89, 0 0" stroke="#d5d7dc" stroke-width="2" fill="none"></path></g><g stroke-linecap="round" transform="translate(30 210) rotate(0 500 300)"><path d="M0 0 L1000 0 L1000 600 L0 600" stroke="none" stroke-width="0" fill="#f1f3f4"></path><path d="M0 0 C248.82 0, 497.64 0, 1000 0 M0 0 C324.14 0, 648.28 0, 1000 0 M1000 0 C1000 145.23, 1000 290.46, 1000 600 M1000 0 C1000 121.11, 1000 242.21, 1000 600 M1000 600 C769.23 600, 538.46 600, 0 600 M1000 600 C612.04 600, 224.08 600, 0 600 M0 600 C0 366.93, 0 133.86, 0 0 M0 600 C0 440.17, 0 280.34, 0 0" stroke="#FFFFFF" stroke-width="2" fill="none"></path></g><g stroke-opacity="0.8" fill-opacity="0.8" transform="translate(50 230) rotate(0 95.5 11.5)"><text x="0" y="19" font-family="Helvetica, Segoe UI Emoji" font-size="20px" fill="#202124" text-anchor="start" style="white-space: pre;" direction="ltr">Google Cloud Project</text></g><g stroke-linecap="round" transform="translate(70 270) rotate(0 480 260)"><path d="M0 0 L960 0 L960 520 L0 520" stroke="none" stroke-width="0" fill="#d2e3fc"></path><path d="M0 0 C307.79 0, 615.58 0, 960 0 M0 0 C259.3 0, 518.61 0, 960 0 M960 0 C960 176.54, 960 353.08, 960 520 M960 0 C960 113.58, 960 227.16, 960 520 M960 520 C658.05 520, 356.09 520, 0 520 M960 520 C750.86 520, 541.72 520, 0 520 M0 520 C0 331.93, 0 143.85, 0 0 M0 520 C0 325.58, 0 131.17, 0 0" stroke="#4285f4" stroke-width="2" fill="none"></path></g><g stroke-linecap="round" transform="translate(30 30) rotate(0 500 80)"><path d="M0 0 L1000 0 L1000 160 L0 160" stroke="none" stroke-width="0" fill="#d2e3fc"></path><path d="M0 0 C338.52 0, 677.05 0, 1000 0 M0 0 C387.47 0, 774.94 0, 1000 0 M1000 0 C1000 37.72, 1000 75.44, 1000 160 M1000 0 C1000 57.21, 1000 114.42, 1000 160 M1000 160 C610.24 160, 220.48 160, 0 160 M1000 160 C626.3 160, 252.6 160, 0 160 M0 160 C0 112.07, 0 64.13, 0 0 M0 160 C0 100.42, 0 40.85, 0 0" stroke="#4285f4" stroke-width="2" fill="none"></path></g><g stroke-opacity="0.8" fill-opacity="0.8" transform="translate(330 50) rotate(0 23.5 10)"><text x="0" y="16" font-family="Helvetica, Segoe UI Emoji" font-size="16.444444444444446px" fill="#202124" text-anchor="start" style="white-space: pre;" direction="ltr">USER</text></g><g stroke-linecap="round" transform="translate(270 330) rotate(0 16 16)"><path d="M32 16 C32 16.93, 31.92 17.87, 31.76 18.78 C31.6 19.69, 31.35 20.6, 31.04 21.47 C30.72 22.34, 30.32 23.2, 29.86 24 C29.39 24.8, 28.85 25.58, 28.26 26.28 C27.66 26.99, 26.99 27.66, 26.28 28.26 C25.58 28.85, 24.8 29.39, 24 29.86 C23.2 30.32, 22.34 30.72, 21.47 31.04 C20.6 31.35, 19.69 31.6, 18.78 31.76 C17.87 31.92, 16.93 32, 16 32 C15.07 32, 14.13 31.92, 13.22 31.76 C12.31 31.6, 11.4 31.35, 10.53 31.04 C9.66 30.72, 8.8 30.32, 8 29.86 C7.2 29.39, 6.42 28.85, 5.72 28.26 C5.01 27.66, 4.34 26.99, 3.74 26.28 C3.15 25.58, 2.61 24.8, 2.14 24 C1.68 23.2, 1.28 22.34, 0.96 21.47 C0.65 20.6, 0.4 19.69, 0.24 18.78 C0.08 17.87, 0 16.93, 0 16 C0 15.07, 0.08 14.13, 0.24 13.22 C0.4 12.31, 0.65 11.4, 0.96 10.53 C1.28 9.66, 1.68 8.8, 2.14 8 C2.61 7.2, 3.15 6.42, 3.74 5.72 C4.34 5.01, 5.01 4.34, 5.72 3.74 C6.42 3.15, 7.2 2.61, 8 2.14 C8.8 1.68, 9.66 1.28, 10.53 0.96 C11.4 0.65, 12.31 0.4, 13.22 0.24 C14.13 0.08, 15.07 0, 16 0 C16.93 0, 17.87 0.08, 18.78 0.24 C19.69 0.4, 20.6 0.65, 21.47 0.96 C22.34 1.28, 23.2 1.68, 24 2.14 C24.8 2.61, 25.58 3.15, 26.28 3.74 C26.99 4.34, 27.66 5.01, 28.26 5.72 C28.85 6.42, 29.39 7.2, 29.86 8 C30.32 8.8, 30.72 9.66, 31.04 10.53 C31.35 11.4, 31.6 12.31, 31.76 13.22 C31.92 14.13, 31.96 15.54, 32 16 C32.04 16.46, 32.04 15.54, 32 16" stroke="none" stroke-width="0" fill="#202124"></path><path d="M32 16 C32 16.93, 31.92 17.87, 31.76 18.78 C31.6 19.69, 31.35 20.6, 31.04 21.47 C30.72 22.34, 30.32 23.2, 29.86 24 C29.39 24.8, 28.85 25.58, 28.26 26.28 C27.66 26.99, 26.99 27.66, 26.28 28.26 C25.58 28.85, 24.8 29.39, 24 29.86 C23.2 30.32, 22.34 30.72, 21.47 31.04 C20.6 31.35, 19.69 31.6, 18.78 31.76 C17.87 31.92, 16.93 32, 16 32 C15.07 32, 14.13 31.92, 13.22 31.76 C12.31 31.6, 11.4 31.35, 10.53 31.04 C9.66 30.72, 8.8 30.32, 8 29.86 C7.2 29.39, 6.42 28.85, 5.72 28.26 C5.01 27.66, 4.34 26.99, 3.74 26.28 C3.15 25.58, 2.61 24.8, 2.14 24 C1.68 23.2, 1.28 22.34, 0.96 21.47 C0.65 20.6, 0.4 19.69, 0.24 18.78 C0.08 17.87, 0 16.93, 0 16 C0 15.07, 0.08 14.13, 0.24 13.22 C0.4 12.31, 0.65 11.4, 0.96 10.53 C1.28 9.66, 1.68 8.8, 2.14 8 C2.61 7.2, 3.15 6.42, 3.74 5.72 C4.34 5.01, 5.01 4.34, 5.72 3.74 C6.42 3.15, 7.2 2.61, 8 2.14 C8.8 1.68, 9.66 1.28, 10.53 0.96 C11.4 0.65, 12.31 0.4, 13.22 0.24 C14.13 0.08, 15.07 0, 16 0 C16.93 0, 17.87 0.08, 18.78 0.24 C19.69 0.4, 20.6 0.65, 21.47 0.96 C22.34 1.28, 23.2 1.68, 24 2.14 C24.8 2.61, 25.58 3.15, 26.28 3.74 C26.99 4.34, 27.66 5.01, 28.26 5.72 C28.85 6.42, 29.39 7.2, 29.86 8 C30.32 8.8, 30.72 9.66, 31.04 10.53 C31.35 11.4, 31.6 12.31, 31.76 13.22 C31.92 14.13, 31.96 15.54, 32 16 C32.04 16.46, 32.04 15.54, 32 16" stroke="#202124" stroke-width="2" fill="none"></path></g><g transform="translate(280.5 338) rotate(0 4.5 8)"><text x="4.5" y="13" font-family="Helvetica, Segoe UI Emoji" font-size="14px" fill="#FFFFFF" text-anchor="middle" style="white-space: pre;" direction="ltr">1</text></g><g stroke-linecap="round" transform="translate(310 90) rotate(0 44 41)"><path d="M8.2 0 L79.8 0 L83.39 0.51 L85.95 2.05 L87.49 4.61 L88 8.2 L88 73.8 L87.49 77.39 L85.95 79.95 L83.39 81.49 L79.8 82 L8.2 82 L4.61 81.49 L2.05 79.95 L0.51 77.39 L0 73.8 L0 8.2 L0.51 4.61 L2.05 2.05 L4.61 0.51 L8.2 0" stroke="none" stroke-width="0" fill="#FFF"></path><path d="M8.2 0 M8.2 0 C26.34 0, 44.48 0, 79.8 0 M8.2 0 C35.87 0, 63.53 0, 79.8 0 M79.8 0 C85.27 0, 88 2.73, 88 8.2 M79.8 0 C85.27 0, 88 2.73, 88 8.2 M88 8.2 C88 25.02, 88 41.85, 88 73.8 M88 8.2 C88 22.85, 88 37.51, 88 73.8 M88 73.8 C88 79.27, 85.27 82, 79.8 82 M88 73.8 C88 79.27, 85.27 82, 79.8 82 M79.8 82 C59.01 82, 38.22 82, 8.2 82 M79.8 82 C59.33 82, 38.86 82, 8.2 82 M8.2 82 C2.73 82, 0 79.27, 0 73.8 M8.2 82 C2.73 82, 0 79.27, 0 73.8 M0 73.8 C0 56.37, 0 38.94, 0 8.2 M0 73.8 C0 50.01, 0 26.22, 0 8.2 M0 8.2 C0 2.73, 2.73 0, 8.2 0 M0 8.2 C0 2.73, 2.73 0, 8.2 0" stroke="#202124" stroke-width="1" fill="none"></path></g><g transform="translate(326 138) rotate(0 28 9)"><text x="28" y="16" font-family="Helvetica, Segoe UI Emoji" font-size="16px" fill="#202124" text-anchor="middle" style="white-space: pre;" direction="ltr">Computer</text></g><g stroke-linecap="round"><g transform="translate(342 106) rotate(0 12 12)" fill-rule="evenodd"><path d="M0 0 L24 0 L24 24 L0 24 L0 0" stroke="none" stroke-width="0" fill="#00000000" fill-rule="evenodd"></path><path d="M0 0 C7.26 0, 14.52 0, 24 0 M0 0 C8.45 0, 16.9 0, 24 0 M24 0 C24 6.4, 24 12.79, 24 24 M24 0 C24 8.61, 24 17.23, 24 24 M24 24 C15.6 24, 7.19 24, 0 24 M24 24 C15.07 24, 6.14 24, 0 24 M0 24 C0 15.44, 0 6.87, 0 0 M0 24 C0 17.27, 0 10.54, 0 0 M0 0 C0 0, 0 0, 0 0 M0 0 C0 0, 0 0, 0 0" stroke="#00000000" stroke-width="1" fill="none"></path></g></g><g stroke-linecap="round"><g transform="translate(362 124) rotate(0 -8 -6)" fill-rule="evenodd"><path d="M0 0 L0 0 L0.77 -0.16 L1.41 -0.59 L1.83 -1.22 L1.99 -2 L2 -12 L2 -12 L1.84 -12.78 L1.41 -13.41 L0.78 -13.84 L0 -14 L-16 -14 L-16 -14 L-16.78 -13.84 L-17.41 -13.41 L-17.84 -12.78 L-18 -12 L-18 -2 L-18 -2 L-17.84 -1.22 L-17.41 -0.59 L-16.78 -0.16 L-16 0 L-20 0 L-20 2 L4 2 L4 0 L0 0 L0 0" stroke="none" stroke-width="0" fill="#000" fill-rule="evenodd"></path><path d="M0 0 C0 0, 0 0, 0 0 M0 0 C0 0, 0 0, 0 0 M0 0 C0.16 -0.03, 0.32 -0.07, 0.77 -0.16 M0 0 C0.25 -0.05, 0.51 -0.1, 0.77 -0.16 M0.77 -0.16 C0.94 -0.27, 1.1 -0.38, 1.41 -0.59 M0.77 -0.16 C0.93 -0.26, 1.08 -0.36, 1.41 -0.59 M1.41 -0.59 C1.57 -0.83, 1.73 -1.06, 1.83 -1.22 M1.41 -0.59 C1.56 -0.81, 1.71 -1.04, 1.83 -1.22 M1.83 -1.22 C1.88 -1.46, 1.93 -1.69, 1.99 -2 M1.83 -1.22 C1.88 -1.48, 1.94 -1.73, 1.99 -2 M1.99 -2 C1.99 -5.53, 2 -9.06, 2 -12 M1.99 -2 C1.99 -4.53, 2 -7.07, 2 -12 M2 -12 C2 -12, 2 -12, 2 -12 M2 -12 C2 -12, 2 -12, 2 -12 M2 -12 C1.94 -12.28, 1.89 -12.55, 1.84 -12.78 M2 -12 C1.96 -12.21, 1.91 -12.43, 1.84 -12.78 M1.84 -12.78 C1.69 -13.01, 1.53 -13.24, 1.41 -13.41 M1.84 -12.78 C1.75 -12.91, 1.66 -13.05, 1.41 -13.41 M1.41 -13.41 C1.22 -13.54, 1.03 -13.67, 0.78 -13.84 M1.41 -13.41 C1.16 -13.58, 0.91 -13.75, 0.78 -13.84 M0.78 -13.84 C0.48 -13.9, 0.17 -13.96, 0 -14 M0.78 -13.84 C0.48 -13.9, 0.18 -13.96, 0 -14 M0 -14 C-4.9 -14, -9.81 -14, -16 -14 M0 -14 C-3.31 -14, -6.63 -14, -16 -14 M-16 -14 C-16 -14, -16 -14, -16 -14 M-16 -14 C-16 -14, -16 -14, -16 -14 M-16 -14 C-16.31 -13.94, -16.62 -13.87, -16.78 -13.84 M-16 -14 C-16.17 -13.96, -16.35 -13.93, -16.78 -13.84 M-16.78 -13.84 C-17 -13.69, -17.23 -13.54, -17.41 -13.41 M-16.78 -13.84 C-16.91 -13.76, -17.03 -13.67, -17.41 -13.41 M-17.41 -13.41 C-17.5 -13.28, -17.59 -13.15, -17.84 -12.78 M-17.41 -13.41 C-17.58 -13.17, -17.74 -12.93, -17.84 -12.78 M-17.84 -12.78 C-17.89 -12.52, -17.95 -12.26, -18 -12 M-17.84 -12.78 C-17.9 -12.51, -17.95 -12.25, -18 -12 M-18 -12 C-18 -9.35, -18 -6.7, -18 -2 M-18 -12 C-18 -8.64, -18 -5.29, -18 -2 M-18 -2 C-18 -2, -18 -2, -18 -2 M-18 -2 C-18 -2, -18 -2, -18 -2 M-18 -2 C-17.95 -1.76, -17.9 -1.51, -17.84 -1.22 M-18 -2 C-17.94 -1.72, -17.89 -1.44, -17.84 -1.22 M-17.84 -1.22 C-17.71 -1.02, -17.57 -0.82, -17.41 -0.59 M-17.84 -1.22 C-17.7 -1.01, -17.55 -0.8, -17.41 -0.59 M-17.41 -0.59 C-17.16 -0.42, -16.91 -0.25, -16.78 -0.16 M-17.41 -0.59 C-17.25 -0.48, -17.1 -0.37, -16.78 -0.16 M-16.78 -0.16 C-16.47 -0.1, -16.17 -0.04, -16 0 M-16.78 -0.16 C-16.61 -0.12, -16.45 -0.09, -16 0 M-16 0 C-17.45 0, -18.89 0, -20 0 M-16 0 C-16.89 0, -17.77 0, -20 0 M-20 0 C-20 0.42, -20 0.85, -20 2 M-20 0 C-20 0.52, -20 1.04, -20 2 M-20 2 C-11.3 2, -2.61 2, 4 2 M-20 2 C-14.93 2, -9.86 2, 4 2 M4 2 C4 1.29, 4 0.57, 4 0 M4 2 C4 1.35, 4 0.7, 4 0 M4 0 C2.57 0, 1.14 0, 0 0 M4 0 C2.5 0, 0.99 0, 0 0 M0 0 C0 0, 0 0, 0 0 M0 0 C0 0, 0 0, 0 0 M0 0 C0 0, 0 0, 0 0 M0 0 C0 0, 0 0, 0 0" stroke="#00000000" stroke-width="1" fill="none"></path></g></g><g stroke-linecap="round"><g transform="translate(346 112) rotate(0 8 5)" fill-rule="evenodd"><path d="M0 0 L16 0 L16 10 L0 10 L0 0" stroke="none" stroke-width="0" fill="#DEDEDE" fill-rule="evenodd"></path><path d="M0 0 C5.58 0, 11.17 0, 16 0 M0 0 C6.31 0, 12.62 0, 16 0 M16 0 C16 2, 16 4, 16 10 M16 0 C16 2.32, 16 4.65, 16 10 M16 10 C10.03 10, 4.07 10, 0 10 M16 10 C11.89 10, 7.78 10, 0 10 M0 10 C0 7.17, 0 4.33, 0 0 M0 10 C0 6.99, 0 3.97, 0 0 M0 0 C0 0, 0 0, 0 0 M0 0 C0 0, 0 0, 0 0" stroke="#00000000" stroke-width="1" fill="none"></path></g></g><g stroke-linecap="round" transform="translate(790 450) rotate(0 100 33.33333333333334)"><path d="M6.67 0 L196.25 0.42 L198.33 1.67 L199.58 3.75 L200 6.67 L199.58 62.92 L198.33 65 L196.25 66.25 L193.33 66.67 L3.75 66.25 L1.67 65 L0.42 62.92 L0 60 L0 6.67 L0.42 3.75 L1.67 1.67 L3.75 0.42 L6.67 0" stroke="none" stroke-width="0" fill="#FFF"></path><path d="M6.67 0 M6.67 0 C71.81 0, 136.96 0, 193.33 0 M6.67 0 C73.92 0, 141.16 0, 193.33 0 M193.33 0 C197.78 0, 200 2.22, 200 6.67 M193.33 0 C197.78 0, 200 2.22, 200 6.67 M200 6.67 C200 25.14, 200 43.61, 200 60 M200 6.67 C200 26.83, 200 47, 200 60 M200 60 C200 64.44, 197.78 66.67, 193.33 66.67 M200 60 C200 64.44, 197.78 66.67, 193.33 66.67 M193.33 66.67 C134.23 66.67, 75.12 66.67, 6.67 66.67 M193.33 66.67 C129.49 66.67, 65.65 66.67, 6.67 66.67 M6.67 66.67 C2.22 66.67, 0 64.44, 0 60 M6.67 66.67 C2.22 66.67, 0 64.44, 0 60 M0 60 C0 48.36, 0 36.73, 0 6.67 M0 60 C0 40.95, 0 21.9, 0 6.67 M0 6.67 C0 2.22, 2.22 0, 6.67 0 M0 6.67 C0 2.22, 2.22 0, 6.67 0" stroke="#202124" stroke-width="1" fill="none"></path></g><g transform="translate(803.3333333333333 463.3333333333333) rotate(0 42.916666666666686 7.916666666666657)"><text x="0" y="12.833333333333334" font-family="Helvetica, Segoe UI Emoji" font-size="13.333333333333334px" fill="#1A73E8" text-anchor="start" style="white-space: pre;" direction="ltr">Cloud Storage</text></g><g transform="translate(803.3333333333333 481.6666666666667) rotate(0 40.833333333333314 7.916666666666657)"><text x="0" y="12.833333333333334" font-family="Helvetica, Segoe UI Emoji" font-size="13.333333333333334px" fill="#202124" text-anchor="start" style="white-space: pre;" direction="ltr">Static content</text></g><g stroke-linecap="round" transform="translate(958.3333333333335 466.6666666666667) rotate(0 8.333333333333371 2.916666666666657)"><path d="M0 0 L16.67 0 L16.67 5.83 L0 5.83" stroke="none" stroke-width="0" fill="#aecbfa"></path><path d="M0 0 C5.84 0, 11.69 0, 16.67 0 M0 0 C5.03 0, 10.06 0, 16.67 0 M16.67 0 C16.67 1.8, 16.67 3.61, 16.67 5.83 M16.67 0 C16.67 1.35, 16.67 2.71, 16.67 5.83 M16.67 5.83 C11.91 5.83, 7.16 5.83, 0 5.83 M16.67 5.83 C10.05 5.83, 3.43 5.83, 0 5.83 M0 5.83 C0 4.4, 0 2.97, 0 0 M0 5.83 C0 4, 0 2.17, 0 0" stroke="transparent" stroke-width="1" fill="none"></path></g><g stroke-linecap="round" transform="translate(973.3333333333335 466.6666666666667) rotate(0 0.8333333333333712 2.916666666666657)"><path d="M0 0 L1.67 0 L1.67 5.83 L0 5.83" stroke="none" stroke-width="0" fill="#669df6"></path><path d="M0 0 C0.65 0, 1.3 0, 1.67 0 M0 0 C0.62 0, 1.24 0, 1.67 0 M1.67 0 C1.67 2.11, 1.67 4.21, 1.67 5.83 M1.67 0 C1.67 1.44, 1.67 2.88, 1.67 5.83 M1.67 5.83 C1.14 5.83, 0.62 5.83, 0 5.83 M1.67 5.83 C1.15 5.83, 0.63 5.83, 0 5.83 M0 5.83 C0 3.64, 0 1.45, 0 0 M0 5.83 C0 3.62, 0 1.41, 0 0" stroke="transparent" stroke-width="1" fill="none"></path></g><g stroke-linecap="round"><g transform="translate(975 466.6666666666667) rotate(0 -0.8333333333333712 2.916666666666657)" fill-rule="evenodd"><path d="M0 0 L-1.67 0 L-1.67 5.83 L0 0 L0 0" stroke="none" stroke-width="0" fill="#4285f4" fill-rule="evenodd"></path><path d="M0 0 C-0.56 0, -1.12 0, -1.67 0 M0 0 C-0.4 0, -0.81 0, -1.67 0 M-1.67 0 C-1.67 2.03, -1.67 4.05, -1.67 5.83 M-1.67 0 C-1.67 1.22, -1.67 2.45, -1.67 5.83 M-1.67 5.83 C-1.02 3.55, -0.36 1.27, 0 0 M-1.67 5.83 C-1.26 4.42, -0.86 3, 0 0 M0 0 C0 0, 0 0, 0 0 M0 0 C0 0, 0 0, 0 0 M0 0 C0 0, 0 0, 0 0 M0 0 C0 0, 0 0, 0 0" stroke="#00000000" stroke-width="1" fill="none"></path></g></g><g stroke-linecap="round" transform="translate(958.3333333333335 466.6666666666667) rotate(0 0.8333333333333712 2.916666666666657)"><path d="M0 0 L1.67 0 L1.67 5.83 L0 5.83" stroke="none" stroke-width="0" fill="#669df6"></path><path d="M0 0 C0.43 0, 0.86 0, 1.67 0 M0 0 C0.46 0, 0.92 0, 1.67 0 M1.67 0 C1.67 1.64, 1.67 3.29, 1.67 5.83 M1.67 0 C1.67 1.57, 1.67 3.13, 1.67 5.83 M1.67 5.83 C1.28 5.83, 0.89 5.83, 0 5.83 M1.67 5.83 C1.29 5.83, 0.91 5.83, 0 5.83 M0 5.83 C0 3.98, 0 2.13, 0 0 M0 5.83 C0 3.84, 0 1.85, 0 0" stroke="transparent" stroke-width="1" fill="none"></path></g><g stroke-linecap="round" transform="translate(961.6666666666667 469.1666666666667) rotate(0 2.5 0.4166666666666572)"><path d="M0 0 L5 0 L5 0.83 L0 0.83" stroke="none" stroke-width="0" fill="#fff"></path><path d="M0 0 C1.79 0, 3.58 0, 5 0 M0 0 C1.19 0, 2.38 0, 5 0 M5 0 C5 0.3, 5 0.6, 5 0.83 M5 0 C5 0.18, 5 0.37, 5 0.83 M5 0.83 C3.6 0.83, 2.21 0.83, 0 0.83 M5 0.83 C3.59 0.83, 2.17 0.83, 0 0.83 M0 0.83 C0 0.54, 0 0.26, 0 0 M0 0.83 C0 0.53, 0 0.23, 0 0" stroke="transparent" stroke-width="1" fill="none"></path></g><g stroke-linecap="round" transform="translate(969.1666666666667 468.3333333333333) rotate(0 1.25 1.25)"><path d="M0.25 0 L2.5 0.25 L2.25 2.5 L0 2.25 L0.25 0" stroke="none" stroke-width="0" fill="#fff"></path><path d="M0.25 0 M0.25 0 C0.73 0, 1.2 0, 2.25 0 M0.25 0 C0.87 0, 1.49 0, 2.25 0 M2.25 0 C2.42 0, 2.5 0.08, 2.5 0.25 M2.25 0 C2.42 0, 2.5 0.08, 2.5 0.25 M2.5 0.25 C2.5 0.69, 2.5 1.14, 2.5 2.25 M2.5 0.25 C2.5 0.82, 2.5 1.39, 2.5 2.25 M2.5 2.25 C2.5 2.42, 2.42 2.5, 2.25 2.5 M2.5 2.25 C2.5 2.42, 2.42 2.5, 2.25 2.5 M2.25 2.5 C1.68 2.5, 1.12 2.5, 0.25 2.5 M2.25 2.5 C1.76 2.5, 1.27 2.5, 0.25 2.5 M0.25 2.5 C0.08 2.5, 0 2.42, 0 2.25 M0.25 2.5 C0.08 2.5, 0 2.42, 0 2.25 M0 2.25 C0 1.53, 0 0.81, 0 0.25 M0 2.25 C0 1.85, 0 1.44, 0 0.25 M0 0.25 C0 0.08, 0.08 0, 0.25 0 M0 0.25 C0 0.08, 0.08 0, 0.25 0" stroke="transparent" stroke-width="1" fill="none"></path></g><g stroke-linecap="round" transform="translate(958.3333333333335 474.1666666666667) rotate(0 8.333333333333371 2.916666666666657)"><path d="M0 0 L16.67 0 L16.67 5.83 L0 5.83" stroke="none" stroke-width="0" fill="#aecbfa"></path><path d="M0 0 C5.98 0, 11.95 0, 16.67 0 M0 0 C4 0, 7.99 0, 16.67 0 M16.67 0 C16.67 1.84, 16.67 3.67, 16.67 5.83 M16.67 0 C16.67 2.03, 16.67 4.06, 16.67 5.83 M16.67 5.83 C12.29 5.83, 7.92 5.83, 0 5.83 M16.67 5.83 C10.69 5.83, 4.71 5.83, 0 5.83 M0 5.83 C0 3.98, 0 2.12, 0 0 M0 5.83 C0 4.44, 0 3.04, 0 0" stroke="transparent" stroke-width="1" fill="none"></path></g><g stroke-linecap="round" transform="translate(973.3333333333335 474.1666666666667) rotate(0 0.8333333333333712 2.916666666666657)"><path d="M0 0 L1.67 0 L1.67 5.83 L0 5.83" stroke="none" stroke-width="0" fill="#669df6"></path><path d="M0 0 C0.59 0, 1.19 0, 1.67 0 M0 0 C0.42 0, 0.84 0, 1.67 0 M1.67 0 C1.67 2.06, 1.67 4.11, 1.67 5.83 M1.67 0 C1.67 2.25, 1.67 4.51, 1.67 5.83 M1.67 5.83 C1.29 5.83, 0.91 5.83, 0 5.83 M1.67 5.83 C1.08 5.83, 0.49 5.83, 0 5.83 M0 5.83 C0 3.6, 0 1.36, 0 0 M0 5.83 C0 4.03, 0 2.23, 0 0" stroke="transparent" stroke-width="1" fill="none"></path></g><g stroke-linecap="round"><g transform="translate(975 474.1666666666667) rotate(0 -0.8333333333333712 2.916666666666657)" fill-rule="evenodd"><path d="M0 0 L-1.67 0 L-1.67 5.83 L0 0 L0 0" stroke="none" stroke-width="0" fill="#4285f4" fill-rule="evenodd"></path><path d="M0 0 C-0.66 0, -1.33 0, -1.67 0 M0 0 C-0.58 0, -1.16 0, -1.67 0 M-1.67 0 C-1.67 1.44, -1.67 2.89, -1.67 5.83 M-1.67 0 C-1.67 1.86, -1.67 3.72, -1.67 5.83 M-1.67 5.83 C-1.06 3.71, -0.45 1.59, 0 0 M-1.67 5.83 C-1.06 3.7, -0.45 1.56, 0 0 M0 0 C0 0, 0 0, 0 0 M0 0 C0 0, 0 0, 0 0 M0 0 C0 0, 0 0, 0 0 M0 0 C0 0, 0 0, 0 0" stroke="#00000000" stroke-width="1" fill="none"></path></g></g><g stroke-linecap="round" transform="translate(958.3333333333335 474.1666666666667) rotate(0 0.8333333333333712 2.916666666666657)"><path d="M0 0 L1.67 0 L1.67 5.83 L0 5.83" stroke="none" stroke-width="0" fill="#669df6"></path><path d="M0 0 C0.34 0, 0.67 0, 1.67 0 M0 0 C0.5 0, 1 0, 1.67 0 M1.67 0 C1.67 2.04, 1.67 4.07, 1.67 5.83 M1.67 0 C1.67 1.29, 1.67 2.58, 1.67 5.83 M1.67 5.83 C1.09 5.83, 0.51 5.83, 0 5.83 M1.67 5.83 C1.01 5.83, 0.35 5.83, 0 5.83 M0 5.83 C0 3.99, 0 2.14, 0 0 M0 5.83 C0 3.67, 0 1.5, 0 0" stroke="transparent" stroke-width="1" fill="none"></path></g><g stroke-linecap="round" transform="translate(961.6666666666667 476.6666666666667) rotate(0 2.5 0.4166666666666572)"><path d="M0 0 L5 0 L5 0.83 L0 0.83" stroke="none" stroke-width="0" fill="#fff"></path><path d="M0 0 C1.49 0, 2.97 0, 5 0 M0 0 C1.57 0, 3.14 0, 5 0 M5 0 C5 0.33, 5 0.66, 5 0.83 M5 0 C5 0.27, 5 0.54, 5 0.83 M5 0.83 C3.21 0.83, 1.43 0.83, 0 0.83 M5 0.83 C3.19 0.83, 1.38 0.83, 0 0.83 M0 0.83 C0 0.59, 0 0.35, 0 0 M0 0.83 C0 0.5, 0 0.17, 0 0" stroke="transparent" stroke-width="1" fill="none"></path></g><g stroke-linecap="round" transform="translate(969.1666666666667 475.8333333333333) rotate(0 1.25 1.25)"><path d="M0.25 0 L2.5 0.25 L2.25 2.5 L0 2.25 L0.25 0" stroke="none" stroke-width="0" fill="#fff"></path><path d="M0.25 0 M0.25 0 C0.88 0, 1.51 0, 2.25 0 M0.25 0 C0.88 0, 1.51 0, 2.25 0 M2.25 0 C2.42 0, 2.5 0.08, 2.5 0.25 M2.25 0 C2.42 0, 2.5 0.08, 2.5 0.25 M2.5 0.25 C2.5 0.89, 2.5 1.54, 2.5 2.25 M2.5 0.25 C2.5 0.78, 2.5 1.3, 2.5 2.25 M2.5 2.25 C2.5 2.42, 2.42 2.5, 2.25 2.5 M2.5 2.25 C2.5 2.42, 2.42 2.5, 2.25 2.5 M2.25 2.5 C1.53 2.5, 0.8 2.5, 0.25 2.5 M2.25 2.5 C1.61 2.5, 0.98 2.5, 0.25 2.5 M0.25 2.5 C0.08 2.5, 0 2.42, 0 2.25 M0.25 2.5 C0.08 2.5, 0 2.42, 0 2.25 M0 2.25 C0 1.46, 0 0.66, 0 0.25 M0 2.25 C0 1.62, 0 0.99, 0 0.25 M0 0.25 C0 0.08, 0.08 0, 0.25 0 M0 0.25 C0 0.08, 0.08 0, 0.25 0" stroke="transparent" stroke-width="1" fill="none"></path></g><g stroke-linecap="round"><g transform="translate(350 190) rotate(0 -60 90)"><path d="M0 0 C0 44.34, 0 88.69, 0 120 M0 0 C0 43.46, 0 86.93, 0 120 M0 120 C-45.21 120, -90.41 120, -120 120 M0 120 C-34.96 120, -69.93 120, -120 120 M-120 120 C-120 132.41, -120 144.83, -120 180 M-120 120 C-120 141.95, -120 163.89, -120 180" stroke="#202124" stroke-width="1" fill="none"></path></g><g transform="translate(350 190) rotate(0 -60 90)"><path d="M-120 180 L-126.34 166.41 L-113.66 166.41 L-120 180" stroke="none" stroke-width="0" fill="#202124" fill-rule="evenodd"></path><path d="M-120 180 C-122.34 174.98, -124.69 169.95, -126.34 166.41 M-120 180 C-122.3 175.08, -124.59 170.15, -126.34 166.41 M-126.34 166.41 C-121.56 166.41, -116.79 166.41, -113.66 166.41 M-126.34 166.41 C-122.65 166.41, -118.95 166.41, -113.66 166.41 M-113.66 166.41 C-114.97 169.22, -116.28 172.03, -120 180 M-113.66 166.41 C-115.98 171.38, -118.3 176.35, -120 180 M-120 180 C-120 180, -120 180, -120 180 M-120 180 C-120 180, -120 180, -120 180" stroke="#202124" stroke-width="1" fill="none"></path></g></g><g stroke-linecap="round" transform="translate(130 370) rotate(0 80 40.33333333333334)"><path d="M8.07 0 L155.46 0.5 L157.98 2.02 L159.5 4.54 L160 8.07 L159.5 76.13 L157.98 78.65 L155.46 80.16 L151.93 80.67 L4.54 80.16 L2.02 78.65 L0.5 76.13 L0 72.6 L0 8.07 L0.5 4.54 L2.02 2.02 L4.54 0.5 L8.07 0" stroke="none" stroke-width="0" fill="#FFF"></path><path d="M8.07 0 M8.07 0 C37.12 0, 66.17 0, 151.93 0 M8.07 0 C61.96 0, 115.85 0, 151.93 0 M151.93 0 C157.31 0, 160 2.69, 160 8.07 M151.93 0 C157.31 0, 160 2.69, 160 8.07 M160 8.07 C160 21.12, 160 34.17, 160 72.6 M160 8.07 C160 33.1, 160 58.14, 160 72.6 M160 72.6 C160 77.98, 157.31 80.67, 151.93 80.67 M160 72.6 C160 77.98, 157.31 80.67, 151.93 80.67 M151.93 80.67 C103.46 80.67, 54.98 80.67, 8.07 80.67 M151.93 80.67 C121.75 80.67, 91.57 80.67, 8.07 80.67 M8.07 80.67 C2.69 80.67, 0 77.98, 0 72.6 M8.07 80.67 C2.69 80.67, 0 77.98, 0 72.6 M0 72.6 C0 56.22, 0 39.85, 0 8.07 M0 72.6 C0 47.36, 0 22.12, 0 8.07 M0 8.07 C0 2.69, 2.69 0, 8.07 0 M0 8.07 C0 2.69, 2.69 0, 8.07 0" stroke="#202124" stroke-width="1" fill="none"></path></g><g transform="translate(140.66666666666669 380.66666666666663) rotate(0 62.51666666666668 8.066666666666663)"><text x="0" y="12.133333333333336" font-family="GoogleSans_Medium, Segoe UI Emoji" font-size="12.704303749100953px" fill="#1A73E8" text-anchor="start" style="white-space: pre;" direction="ltr">Cloud Load Balancer </text></g><g stroke-linecap="round"><g transform="translate(271.9200000762937 387.88606007893816) rotate(0 -0.6836366653442383 -1.3672725359598843)" fill-rule="evenodd"><path d="M0 0 L-1.37 0 L-1.37 -2.73 L0 -2.73 L0 0" stroke="none" stroke-width="0" fill="#4285f4" fill-rule="evenodd"></path><path d="M0 0 C-0.41 0, -0.81 0, -1.37 0 M0 0 C-0.33 0, -0.65 0, -1.37 0 M-1.37 0 C-1.37 -0.77, -1.37 -1.53, -1.37 -2.73 M-1.37 0 C-1.37 -0.99, -1.37 -1.98, -1.37 -2.73 M-1.37 -2.73 C-0.99 -2.73, -0.62 -2.73, 0 -2.73 M-1.37 -2.73 C-0.93 -2.73, -0.49 -2.73, 0 -2.73 M0 -2.73 C0 -2.14, 0 -1.54, 0 0 M0 -2.73 C0 -1.92, 0 -1.11, 0 0 M0 0 C0 0, 0 0, 0 0 M0 0 C0 0, 0 0, 0 0" stroke="#00000000" stroke-width="1" fill="none"></path></g></g><g stroke-linecap="round"><g transform="translate(265.76727263132716 387.88606007893816) rotate(0 5.469090302785247 1.7090908686320034)" fill-rule="evenodd"><path d="M0 0 L0 3.42 L1.37 3.42 L1.37 1.37 L4.79 1.37 L4.79 3.42 L6.15 3.42 L6.15 1.37 L9.57 1.37 L9.57 3.42 L10.94 3.42 L10.94 0 L0 0" stroke="none" stroke-width="0" fill="#669df6" fill-rule="evenodd"></path><path d="M0 0 C0 1.08, 0 2.17, 0 3.42 M0 0 C0 1.18, 0 2.35, 0 3.42 M0 3.42 C0.39 3.42, 0.78 3.42, 1.37 3.42 M0 3.42 C0.4 3.42, 0.81 3.42, 1.37 3.42 M1.37 3.42 C1.37 2.88, 1.37 2.35, 1.37 1.37 M1.37 3.42 C1.37 2.89, 1.37 2.36, 1.37 1.37 M1.37 1.37 C2.38 1.37, 3.38 1.37, 4.79 1.37 M1.37 1.37 C2.33 1.37, 3.29 1.37, 4.79 1.37 M4.79 1.37 C4.79 2.18, 4.79 2.99, 4.79 3.42 M4.79 1.37 C4.79 2.02, 4.79 2.67, 4.79 3.42 M4.79 3.42 C5.14 3.42, 5.49 3.42, 6.15 3.42 M4.79 3.42 C5.32 3.42, 5.85 3.42, 6.15 3.42 M6.15 3.42 C6.15 2.61, 6.15 1.8, 6.15 1.37 M6.15 3.42 C6.15 2.67, 6.15 1.93, 6.15 1.37 M6.15 1.37 C7.09 1.37, 8.03 1.37, 9.57 1.37 M6.15 1.37 C7.22 1.37, 8.29 1.37, 9.57 1.37 M9.57 1.37 C9.57 1.86, 9.57 2.35, 9.57 3.42 M9.57 1.37 C9.57 1.96, 9.57 2.55, 9.57 3.42 M9.57 3.42 C9.92 3.42, 10.26 3.42, 10.94 3.42 M9.57 3.42 C9.96 3.42, 10.36 3.42, 10.94 3.42 M10.94 3.42 C10.94 2.69, 10.94 1.97, 10.94 0 M10.94 3.42 C10.94 2.65, 10.94 1.88, 10.94 0 M10.94 0 C7.67 0, 4.4 0, 0 0 M10.94 0 C7.67 0, 4.41 0, 0 0 M0 0 C0 0, 0 0, 0 0 M0 0 C0 0, 0 0, 0 0" stroke="#00000000" stroke-width="1" fill="none"></path></g></g><g stroke-linecap="round"><g transform="translate(267.1345453262327 381.7333332697544) rotate(0 4.101818243662507 1.7090908686320034)" fill-rule="evenodd"><path d="M0 0 L8.2 0 L8.2 3.42 L0 3.42 L0 0" stroke="none" stroke-width="0" fill="#aecbfa" fill-rule="evenodd"></path><path d="M0 0 C3.01 0, 6.01 0, 8.2 0 M0 0 C2.39 0, 4.78 0, 8.2 0 M8.2 0 C8.2 1.23, 8.2 2.45, 8.2 3.42 M8.2 0 C8.2 1.05, 8.2 2.1, 8.2 3.42 M8.2 3.42 C6.35 3.42, 4.5 3.42, 0 3.42 M8.2 3.42 C6.49 3.42, 4.77 3.42, 0 3.42 M0 3.42 C0 2.63, 0 1.84, 0 0 M0 3.42 C0 2.63, 0 1.84, 0 0 M0 0 C0 0, 0 0, 0 0 M0 0 C0 0, 0 0, 0 0" stroke="#00000000" stroke-width="1" fill="none"></path></g></g><g stroke-linecap="round"><g transform="translate(271.236363093058 381.7333332697544) rotate(0 2.0509093602498467 1.7090908686320034)" fill-rule="evenodd"><path d="M0 0 L4.1 0 L4.1 3.42 L0 3.42 L0 0" stroke="none" stroke-width="0" fill="#669df6" fill-rule="evenodd"></path><path d="M0 0 C1.11 0, 2.22 0, 4.1 0 M0 0 C0.92 0, 1.84 0, 4.1 0 M4.1 0 C4.1 0.96, 4.1 1.92, 4.1 3.42 M4.1 0 C4.1 0.9, 4.1 1.81, 4.1 3.42 M4.1 3.42 C3.2 3.42, 2.3 3.42, 0 3.42 M4.1 3.42 C2.63 3.42, 1.16 3.42, 0 3.42 M0 3.42 C0 2.45, 0 1.48, 0 0 M0 3.42 C0 2.09, 0 0.76, 0 0 M0 0 C0 0, 0 0, 0 0 M0 0 C0 0, 0 0, 0 0" stroke="#00000000" stroke-width="1" fill="none"></path></g></g><g stroke-linecap="round"><g transform="translate(273.9709084828693 391.30424181620043) rotate(0 2.0509093602498467 2.0509093602498325)" fill-rule="evenodd"><path d="M0 0 L4.1 0 L4.1 4.1 L0 4.1 L0 0" stroke="none" stroke-width="0" fill="#aecbfa" fill-rule="evenodd"></path><path d="M0 0 C1.61 0, 3.23 0, 4.1 0 M0 0 C1.02 0, 2.03 0, 4.1 0 M4.1 0 C4.1 0.92, 4.1 1.84, 4.1 4.1 M4.1 0 C4.1 1.17, 4.1 2.35, 4.1 4.1 M4.1 4.1 C2.73 4.1, 1.36 4.1, 0 4.1 M4.1 4.1 C3.14 4.1, 2.17 4.1, 0 4.1 M0 4.1 C0 3.17, 0 2.25, 0 0 M0 4.1 C0 2.61, 0 1.12, 0 0 M0 0 C0 0, 0 0, 0 0 M0 0 C0 0, 0 0, 0 0" stroke="#00000000" stroke-width="1" fill="none"></path></g></g><g stroke-linecap="round"><g transform="translate(264.3999999364215 391.30424181620214) rotate(0 2.0509090423583984 2.0509093602498325)" fill-rule="evenodd"><path d="M0 0 L4.1 0 L4.1 4.1 L0 4.1 L0 0" stroke="none" stroke-width="0" fill="#aecbfa" fill-rule="evenodd"></path><path d="M0 0 C1.48 0, 2.97 0, 4.1 0 M0 0 C1.37 0, 2.74 0, 4.1 0 M4.1 0 C4.1 1.57, 4.1 3.15, 4.1 4.1 M4.1 0 C4.1 1.54, 4.1 3.07, 4.1 4.1 M4.1 4.1 C2.81 4.1, 1.52 4.1, 0 4.1 M4.1 4.1 C2.51 4.1, 0.92 4.1, 0 4.1 M0 4.1 C0 2.97, 0 1.84, 0 0 M0 4.1 C0 3.24, 0 2.38, 0 0 M0 0 C0 0, 0 0, 0 0 M0 0 C0 0, 0 0, 0 0" stroke="#00000000" stroke-width="1" fill="none"></path></g></g><g stroke-linecap="round"><g transform="translate(266.4509092966713 391.30424181620214) rotate(0 1.0254543622334893 2.0509093602498325)" fill-rule="evenodd"><path d="M0 0 L2.05 0 L2.05 4.1 L0 4.1 L0 0" stroke="none" stroke-width="0" fill="#669df6" fill-rule="evenodd"></path><path d="M0 0 C0.55 0, 1.11 0, 2.05 0 M0 0 C0.67 0, 1.35 0, 2.05 0 M2.05 0 C2.05 1.27, 2.05 2.55, 2.05 4.1 M2.05 0 C2.05 1.32, 2.05 2.64, 2.05 4.1 M2.05 4.1 C1.37 4.1, 0.69 4.1, 0 4.1 M2.05 4.1 C1.29 4.1, 0.52 4.1, 0 4.1 M0 4.1 C0 2.5, 0 0.89, 0 0 M0 4.1 C0 2.62, 0 1.14, 0 0 M0 0 C0 0, 0 0, 0 0 M0 0 C0 0, 0 0, 0 0" stroke="#00000000" stroke-width="1" fill="none"></path></g></g><g stroke-linecap="round"><g transform="translate(269.18545405069955 391.30424181620214) rotate(0 2.0509093602498467 2.0509093602498325)" fill-rule="evenodd"><path d="M0 0 L4.1 0 L4.1 4.1 L0 4.1 L0 0" stroke="none" stroke-width="0" fill="#aecbfa" fill-rule="evenodd"></path><path d="M0 0 C0.88 0, 1.76 0, 4.1 0 M0 0 C1.06 0, 2.12 0, 4.1 0 M4.1 0 C4.1 1.09, 4.1 2.18, 4.1 4.1 M4.1 0 C4.1 1.5, 4.1 2.99, 4.1 4.1 M4.1 4.1 C3.24 4.1, 2.39 4.1, 0 4.1 M4.1 4.1 C2.48 4.1, 0.86 4.1, 0 4.1 M0 4.1 C0 2.99, 0 1.87, 0 0 M0 4.1 C0 3.05, 0 1.99, 0 0 M0 0 C0 0, 0 0, 0 0 M0 0 C0 0, 0 0, 0 0" stroke="#00000000" stroke-width="1" fill="none"></path></g></g><g stroke-linecap="round"><g transform="translate(271.236363093058 391.3042418162022) rotate(0 1.0254548390706475 2.0509093602498325)" fill-rule="evenodd"><path d="M0 0 L2.05 0 L2.05 4.1 L0 4.1 L0 0" stroke="none" stroke-width="0" fill="#669df6" fill-rule="evenodd"></path><path d="M0 0 C0.59 0, 1.17 0, 2.05 0 M0 0 C0.81 0, 1.62 0, 2.05 0 M2.05 0 C2.05 1.31, 2.05 2.62, 2.05 4.1 M2.05 0 C2.05 1.28, 2.05 2.55, 2.05 4.1 M2.05 4.1 C1.47 4.1, 0.89 4.1, 0 4.1 M2.05 4.1 C1.44 4.1, 0.83 4.1, 0 4.1 M0 4.1 C0 2.8, 0 1.51, 0 0 M0 4.1 C0 3.17, 0 2.25, 0 0 M0 0 C0 0, 0 0, 0 0 M0 0 C0 0, 0 0, 0 0" stroke="#00000000" stroke-width="1" fill="none"></path></g></g><g stroke-linecap="round"><g transform="translate(276.02181879679335 391.3042418162004) rotate(0 1.025454203287751 2.0509093602498325)" fill-rule="evenodd"><path d="M0 0 L2.05 0 L2.05 4.1 L0 4.1 L0 0" stroke="none" stroke-width="0" fill="#669df6" fill-rule="evenodd"></path><path d="M0 0 C0.45 0, 0.9 0, 2.05 0 M0 0 C0.45 0, 0.9 0, 2.05 0 M2.05 0 C2.05 0.83, 2.05 1.66, 2.05 4.1 M2.05 0 C2.05 1.14, 2.05 2.29, 2.05 4.1 M2.05 4.1 C1.64 4.1, 1.22 4.1, 0 4.1 M2.05 4.1 C1.63 4.1, 1.22 4.1, 0 4.1 M0 4.1 C0 2.72, 0 1.34, 0 0 M0 4.1 C0 2.91, 0 1.72, 0 0 M0 0 C0 0, 0 0, 0 0 M0 0 C0 0, 0 0, 0 0" stroke="#00000000" stroke-width="1" fill="none"></path></g></g><g transform="translate(150 410) rotate(0 47 9)"><text x="47" y="14" font-family="Helvetica, Segoe UI Emoji" font-size="16px" fill="#000000" text-anchor="middle" style="white-space: pre;" direction="ltr">Directs traffic</text></g><g stroke-linecap="round"><g transform="translate(291 410) rotate(0 29.5 29.5)"><path d="M0 0 C6.51 0, 13.02 0, 19 0 M0 0 C4.41 0, 8.82 0, 19 0 M19 0 C26.26 0, 33.52 0, 39 0 M19 0 C24.33 0, 29.66 0, 39 0 M39 0 C46.23 0, 53.46 0, 59 0 M39 0 C43.86 0, 48.73 0, 59 0 M59 0 C59 19.98, 59 39.96, 59 59 M59 0 C59 18.08, 59 36.15, 59 59" stroke="#202124" stroke-width="1" fill="none"></path></g><g transform="translate(291 410) rotate(0 29.5 29.5)"><path d="M59 59 L52.66 45.41 L65.34 45.41 L59 59" stroke="none" stroke-width="0" fill="#202124" fill-rule="evenodd"></path><path d="M59 59 C56.83 54.34, 54.65 49.68, 52.66 45.41 M59 59 C57.53 55.85, 56.06 52.69, 52.66 45.41 M52.66 45.41 C57.26 45.41, 61.86 45.41, 65.34 45.41 M52.66 45.41 C56.04 45.41, 59.42 45.41, 65.34 45.41 M65.34 45.41 C63.05 50.32, 60.76 55.23, 59 59 M65.34 45.41 C63.8 48.71, 62.26 52.02, 59 59 M59 59 C59 59, 59 59, 59 59 M59 59 C59 59, 59 59, 59 59" stroke="#202124" stroke-width="1" fill="none"></path></g></g><g stroke-linecap="round" transform="translate(370 390) rotate(0 16 16)"><path d="M32 16 C32 16.93, 31.92 17.87, 31.76 18.78 C31.6 19.69, 31.35 20.6, 31.04 21.47 C30.72 22.34, 30.32 23.2, 29.86 24 C29.39 24.8, 28.85 25.58, 28.26 26.28 C27.66 26.99, 26.99 27.66, 26.28 28.26 C25.58 28.85, 24.8 29.39, 24 29.86 C23.2 30.32, 22.34 30.72, 21.47 31.04 C20.6 31.35, 19.69 31.6, 18.78 31.76 C17.87 31.92, 16.93 32, 16 32 C15.07 32, 14.13 31.92, 13.22 31.76 C12.31 31.6, 11.4 31.35, 10.53 31.04 C9.66 30.72, 8.8 30.32, 8 29.86 C7.2 29.39, 6.42 28.85, 5.72 28.26 C5.01 27.66, 4.34 26.99, 3.74 26.28 C3.15 25.58, 2.61 24.8, 2.14 24 C1.68 23.2, 1.28 22.34, 0.96 21.47 C0.65 20.6, 0.4 19.69, 0.24 18.78 C0.08 17.87, 0 16.93, 0 16 C0 15.07, 0.08 14.13, 0.24 13.22 C0.4 12.31, 0.65 11.4, 0.96 10.53 C1.28 9.66, 1.68 8.8, 2.14 8 C2.61 7.2, 3.15 6.42, 3.74 5.72 C4.34 5.01, 5.01 4.34, 5.72 3.74 C6.42 3.15, 7.2 2.61, 8 2.14 C8.8 1.68, 9.66 1.28, 10.53 0.96 C11.4 0.65, 12.31 0.4, 13.22 0.24 C14.13 0.08, 15.07 0, 16 0 C16.93 0, 17.87 0.08, 18.78 0.24 C19.69 0.4, 20.6 0.65, 21.47 0.96 C22.34 1.28, 23.2 1.68, 24 2.14 C24.8 2.61, 25.58 3.15, 26.28 3.74 C26.99 4.34, 27.66 5.01, 28.26 5.72 C28.85 6.42, 29.39 7.2, 29.86 8 C30.32 8.8, 30.72 9.66, 31.04 10.53 C31.35 11.4, 31.6 12.31, 31.76 13.22 C31.92 14.13, 31.96 15.54, 32 16 C32.04 16.46, 32.04 15.54, 32 16" stroke="none" stroke-width="0" fill="#202124"></path><path d="M32 16 C32 16.93, 31.92 17.87, 31.76 18.78 C31.6 19.69, 31.35 20.6, 31.04 21.47 C30.72 22.34, 30.32 23.2, 29.86 24 C29.39 24.8, 28.85 25.58, 28.26 26.28 C27.66 26.99, 26.99 27.66, 26.28 28.26 C25.58 28.85, 24.8 29.39, 24 29.86 C23.2 30.32, 22.34 30.72, 21.47 31.04 C20.6 31.35, 19.69 31.6, 18.78 31.76 C17.87 31.92, 16.93 32, 16 32 C15.07 32, 14.13 31.92, 13.22 31.76 C12.31 31.6, 11.4 31.35, 10.53 31.04 C9.66 30.72, 8.8 30.32, 8 29.86 C7.2 29.39, 6.42 28.85, 5.72 28.26 C5.01 27.66, 4.34 26.99, 3.74 26.28 C3.15 25.58, 2.61 24.8, 2.14 24 C1.68 23.2, 1.28 22.34, 0.96 21.47 C0.65 20.6, 0.4 19.69, 0.24 18.78 C0.08 17.87, 0 16.93, 0 16 C0 15.07, 0.08 14.13, 0.24 13.22 C0.4 12.31, 0.65 11.4, 0.96 10.53 C1.28 9.66, 1.68 8.8, 2.14 8 C2.61 7.2, 3.15 6.42, 3.74 5.72 C4.34 5.01, 5.01 4.34, 5.72 3.74 C6.42 3.15, 7.2 2.61, 8 2.14 C8.8 1.68, 9.66 1.28, 10.53 0.96 C11.4 0.65, 12.31 0.4, 13.22 0.24 C14.13 0.08, 15.07 0, 16 0 C16.93 0, 17.87 0.08, 18.78 0.24 C19.69 0.4, 20.6 0.65, 21.47 0.96 C22.34 1.28, 23.2 1.68, 24 2.14 C24.8 2.61, 25.58 3.15, 26.28 3.74 C26.99 4.34, 27.66 5.01, 28.26 5.72 C28.85 6.42, 29.39 7.2, 29.86 8 C30.32 8.8, 30.72 9.66, 31.04 10.53 C31.35 11.4, 31.6 12.31, 31.76 13.22 C31.92 14.13, 31.96 15.54, 32 16 C32.04 16.46, 32.04 15.54, 32 16" stroke="#202124" stroke-width="2" fill="none"></path></g><g transform="translate(380.5 398) rotate(0 4.5 8)"><text x="4.5" y="13" font-family="Helvetica, Segoe UI Emoji" font-size="14px" fill="#FFFFFF" text-anchor="middle" style="white-space: pre;" direction="ltr">2</text></g><g stroke-linecap="round" transform="translate(730 670) rotate(0 16 16)"><path d="M32 16 C32 16.93, 31.92 17.87, 31.76 18.78 C31.6 19.69, 31.35 20.6, 31.04 21.47 C30.72 22.34, 30.32 23.2, 29.86 24 C29.39 24.8, 28.85 25.58, 28.26 26.28 C27.66 26.99, 26.99 27.66, 26.28 28.26 C25.58 28.85, 24.8 29.39, 24 29.86 C23.2 30.32, 22.34 30.72, 21.47 31.04 C20.6 31.35, 19.69 31.6, 18.78 31.76 C17.87 31.92, 16.93 32, 16 32 C15.07 32, 14.13 31.92, 13.22 31.76 C12.31 31.6, 11.4 31.35, 10.53 31.04 C9.66 30.72, 8.8 30.32, 8 29.86 C7.2 29.39, 6.42 28.85, 5.72 28.26 C5.01 27.66, 4.34 26.99, 3.74 26.28 C3.15 25.58, 2.61 24.8, 2.14 24 C1.68 23.2, 1.28 22.34, 0.96 21.47 C0.65 20.6, 0.4 19.69, 0.24 18.78 C0.08 17.87, 0 16.93, 0 16 C0 15.07, 0.08 14.13, 0.24 13.22 C0.4 12.31, 0.65 11.4, 0.96 10.53 C1.28 9.66, 1.68 8.8, 2.14 8 C2.61 7.2, 3.15 6.42, 3.74 5.72 C4.34 5.01, 5.01 4.34, 5.72 3.74 C6.42 3.15, 7.2 2.61, 8 2.14 C8.8 1.68, 9.66 1.28, 10.53 0.96 C11.4 0.65, 12.31 0.4, 13.22 0.24 C14.13 0.08, 15.07 0, 16 0 C16.93 0, 17.87 0.08, 18.78 0.24 C19.69 0.4, 20.6 0.65, 21.47 0.96 C22.34 1.28, 23.2 1.68, 24 2.14 C24.8 2.61, 25.58 3.15, 26.28 3.74 C26.99 4.34, 27.66 5.01, 28.26 5.72 C28.85 6.42, 29.39 7.2, 29.86 8 C30.32 8.8, 30.72 9.66, 31.04 10.53 C31.35 11.4, 31.6 12.31, 31.76 13.22 C31.92 14.13, 31.96 15.54, 32 16 C32.04 16.46, 32.04 15.54, 32 16" stroke="none" stroke-width="0" fill="#202124"></path><path d="M32 16 C32 16.93, 31.92 17.87, 31.76 18.78 C31.6 19.69, 31.35 20.6, 31.04 21.47 C30.72 22.34, 30.32 23.2, 29.86 24 C29.39 24.8, 28.85 25.58, 28.26 26.28 C27.66 26.99, 26.99 27.66, 26.28 28.26 C25.58 28.85, 24.8 29.39, 24 29.86 C23.2 30.32, 22.34 30.72, 21.47 31.04 C20.6 31.35, 19.69 31.6, 18.78 31.76 C17.87 31.92, 16.93 32, 16 32 C15.07 32, 14.13 31.92, 13.22 31.76 C12.31 31.6, 11.4 31.35, 10.53 31.04 C9.66 30.72, 8.8 30.32, 8 29.86 C7.2 29.39, 6.42 28.85, 5.72 28.26 C5.01 27.66, 4.34 26.99, 3.74 26.28 C3.15 25.58, 2.61 24.8, 2.14 24 C1.68 23.2, 1.28 22.34, 0.96 21.47 C0.65 20.6, 0.4 19.69, 0.24 18.78 C0.08 17.87, 0 16.93, 0 16 C0 15.07, 0.08 14.13, 0.24 13.22 C0.4 12.31, 0.65 11.4, 0.96 10.53 C1.28 9.66, 1.68 8.8, 2.14 8 C2.61 7.2, 3.15 6.42, 3.74 5.72 C4.34 5.01, 5.01 4.34, 5.72 3.74 C6.42 3.15, 7.2 2.61, 8 2.14 C8.8 1.68, 9.66 1.28, 10.53 0.96 C11.4 0.65, 12.31 0.4, 13.22 0.24 C14.13 0.08, 15.07 0, 16 0 C16.93 0, 17.87 0.08, 18.78 0.24 C19.69 0.4, 20.6 0.65, 21.47 0.96 C22.34 1.28, 23.2 1.68, 24 2.14 C24.8 2.61, 25.58 3.15, 26.28 3.74 C26.99 4.34, 27.66 5.01, 28.26 5.72 C28.85 6.42, 29.39 7.2, 29.86 8 C30.32 8.8, 30.72 9.66, 31.04 10.53 C31.35 11.4, 31.6 12.31, 31.76 13.22 C31.92 14.13, 31.96 15.54, 32 16 C32.04 16.46, 32.04 15.54, 32 16" stroke="#202124" stroke-width="2" fill="none"></path></g><g transform="translate(740.5 678) rotate(0 4.5 8)"><text x="4.5" y="13" font-family="Helvetica, Segoe UI Emoji" font-size="14px" fill="#FFFFFF" text-anchor="middle" style="white-space: pre;" direction="ltr">3</text></g><g stroke-linecap="round" transform="translate(790 550) rotate(0 100 44.166666666666686)"><path d="M8.83 0 L191.17 0 L195.03 0.55 L197.79 2.21 L199.45 4.97 L200 8.83 L200 79.5 L199.45 83.36 L197.79 86.13 L195.03 87.78 L191.17 88.33 L8.83 88.33 L4.97 87.78 L2.21 86.13 L0.55 83.36 L0 79.5 L0 8.83 L0.55 4.97 L2.21 2.21 L4.97 0.55 L8.83 0" stroke="none" stroke-width="0" fill="#FFF"></path><path d="M8.83 0 M8.83 0 C49.13 0, 89.43 0, 191.17 0 M8.83 0 C73.42 0, 138.01 0, 191.17 0 M191.17 0 C197.06 0, 200 2.94, 200 8.83 M191.17 0 C197.06 0, 200 2.94, 200 8.83 M200 8.83 C200 26.74, 200 44.64, 200 79.5 M200 8.83 C200 28.15, 200 47.47, 200 79.5 M200 79.5 C200 85.39, 197.06 88.33, 191.17 88.33 M200 79.5 C200 85.39, 197.06 88.33, 191.17 88.33 M191.17 88.33 C125.49 88.33, 59.81 88.33, 8.83 88.33 M191.17 88.33 C152.65 88.33, 114.14 88.33, 8.83 88.33 M8.83 88.33 C2.94 88.33, 0 85.39, 0 79.5 M8.83 88.33 C2.94 88.33, 0 85.39, 0 79.5 M0 79.5 C0 52.08, 0 24.66, 0 8.83 M0 79.5 C0 60.18, 0 40.87, 0 8.83 M0 8.83 C0 2.94, 2.94 0, 8.83 0 M0 8.83 C0 2.94, 2.94 0, 8.83 0" stroke="#202124" stroke-width="1" fill="none"></path></g><g transform="translate(803.3333333333334 563.3333333333334) rotate(0 66.66666666666669 7.5)"><text x="0" y="11" font-family="GoogleSans_Medium, Segoe UI Emoji" font-size="13.333333333333334px" fill="#1A73E8" text-anchor="start" style="white-space: pre;" direction="ltr">Cloud Firestore</text></g><g transform="translate(810 590) rotate(0 72 8.5)"><text x="0" y="13" font-family="GoogleSans_Medium, Segoe UI Emoji" font-size="13.333333333333334px" fill="#202124" text-anchor="start" style="white-space: pre;" direction="ltr">Stores Media Metadata</text></g><g stroke-linecap="round"><g transform="translate(974.1666666666667 574.1666666666666) rotate(0 -3.75 0)" fill-rule="evenodd"><path d="M0 0 L-7.5 -3.33 L-7.5 0 L0 3.33 L0 0" stroke="none" stroke-width="0" fill="#669df6" fill-rule="evenodd"></path><path d="M0 0 C-1.88 -0.84, -3.76 -1.67, -7.5 -3.33 M0 0 C-2.46 -1.09, -4.91 -2.18, -7.5 -3.33 M-7.5 -3.33 C-7.5 -2.08, -7.5 -0.83, -7.5 0 M-7.5 -3.33 C-7.5 -2.32, -7.5 -1.3, -7.5 0 M-7.5 0 C-4.84 1.18, -2.19 2.36, 0 3.33 M-7.5 0 C-5.42 0.93, -3.34 1.85, 0 3.33 M0 3.33 C0 2.42, 0 1.51, 0 0 M0 3.33 C0 2.44, 0 1.54, 0 0 M0 0 C0 0, 0 0, 0 0 M0 0 C0 0, 0 0, 0 0" stroke="#00000000" stroke-width="1" fill="none"></path></g></g><g stroke-linecap="round"><g transform="translate(974.1666666666667 568.3333333333334) rotate(0 -3.75 0)" fill-rule="evenodd"><path d="M0 0 L-7.5 -3.33 L-7.5 0 L0 3.33 L0 0" stroke="none" stroke-width="0" fill="#669df6" fill-rule="evenodd"></path><path d="M0 0 C-2.19 -0.97, -4.39 -1.95, -7.5 -3.33 M0 0 C-2.45 -1.09, -4.89 -2.17, -7.5 -3.33 M-7.5 -3.33 C-7.5 -2.59, -7.5 -1.86, -7.5 0 M-7.5 -3.33 C-7.5 -2.62, -7.5 -1.9, -7.5 0 M-7.5 0 C-5.43 0.92, -3.37 1.84, 0 3.33 M-7.5 0 C-5.43 0.92, -3.37 1.84, 0 3.33 M0 3.33 C0 2.51, 0 1.68, 0 0 M0 3.33 C0 2.06, 0 0.79, 0 0 M0 0 C0 0, 0 0, 0 0 M0 0 C0 0, 0 0, 0 0" stroke="#00000000" stroke-width="1" fill="none"></path></g></g><g stroke-linecap="round"><g transform="translate(959.1666666666667 568.3333333333334) rotate(0 3.75 0)" fill-rule="evenodd"><path d="M0 0 L7.5 -3.33 L7.5 0 L0 3.33 L0 0 L0 0" stroke="none" stroke-width="0" fill="#aecbfa" fill-rule="evenodd"></path><path d="M0 0 C2.97 -1.32, 5.94 -2.64, 7.5 -3.33 M0 0 C2.06 -0.92, 4.13 -1.83, 7.5 -3.33 M7.5 -3.33 C7.5 -2.37, 7.5 -1.41, 7.5 0 M7.5 -3.33 C7.5 -2.37, 7.5 -1.41, 7.5 0 M7.5 0 C5.64 0.83, 3.77 1.66, 0 3.33 M7.5 0 C5.34 0.96, 3.18 1.92, 0 3.33 M0 3.33 C0 2.05, 0 0.77, 0 0 M0 3.33 C0 2.11, 0 0.88, 0 0 M0 0 C0 0, 0 0, 0 0 M0 0 C0 0, 0 0, 0 0 M0 0 C0 0, 0 0, 0 0 M0 0 C0 0, 0 0, 0 0" stroke="#00000000" stroke-width="1" fill="none"></path></g></g><g stroke-linecap="round"><g transform="translate(959.1666666666667 574.1666666666666) rotate(0 3.75 0)" fill-rule="evenodd"><path d="M0 0 L7.5 -3.33 L7.5 0 L0 3.33 L0 0 L0 0" stroke="none" stroke-width="0" fill="#aecbfa" fill-rule="evenodd"></path><path d="M0 0 C2.35 -1.04, 4.69 -2.09, 7.5 -3.33 M0 0 C1.68 -0.75, 3.36 -1.49, 7.5 -3.33 M7.5 -3.33 C7.5 -2.46, 7.5 -1.58, 7.5 0 M7.5 -3.33 C7.5 -2.29, 7.5 -1.24, 7.5 0 M7.5 0 C4.55 1.31, 1.61 2.62, 0 3.33 M7.5 0 C5.63 0.83, 3.76 1.66, 0 3.33 M0 3.33 C0 2.47, 0 1.61, 0 0 M0 3.33 C0 2.16, 0 0.99, 0 0 M0 0 C0 0, 0 0, 0 0 M0 0 C0 0, 0 0, 0 0 M0 0 C0 0, 0 0, 0 0 M0 0 C0 0, 0 0, 0 0" stroke="#00000000" stroke-width="1" fill="none"></path></g></g><g stroke-linecap="round"><g transform="translate(966.6666666666667 578.3333333333334) rotate(0 3.2833329836527128 1.0416666666666572)" fill-rule="evenodd"><path d="M0 0 L2.81 -1.25 L6.57 0.42 L0 3.33 L0 0 L0 0" stroke="none" stroke-width="0" fill="#4285f4" fill-rule="evenodd"></path><path d="M0 0 C0.59 -0.26, 1.18 -0.53, 2.81 -1.25 M0 0 C0.65 -0.29, 1.31 -0.58, 2.81 -1.25 M2.81 -1.25 C4.19 -0.64, 5.57 -0.02, 6.57 0.42 M2.81 -1.25 C3.64 -0.88, 4.47 -0.51, 6.57 0.42 M6.57 0.42 C5.12 1.06, 3.68 1.7, 0 3.33 M6.57 0.42 C4.9 1.16, 3.24 1.89, 0 3.33 M0 3.33 C0 2.56, 0 1.78, 0 0 M0 3.33 C0 2.13, 0 0.93, 0 0 M0 0 C0 0, 0 0, 0 0 M0 0 C0 0, 0 0, 0 0 M0 0 C0 0, 0 0, 0 0 M0 0 C0 0, 0 0, 0 0" stroke="#00000000" stroke-width="1" fill="none"></path></g></g><g stroke-linecap="round" transform="translate(690 90) rotate(0 41 41)"><path d="M8.2 0 L73.8 0 L77.39 0.51 L79.95 2.05 L81.49 4.61 L82 8.2 L82 73.8 L81.49 77.39 L79.95 79.95 L77.39 81.49 L73.8 82 L8.2 82 L4.61 81.49 L2.05 79.95 L0.51 77.39 L0 73.8 L0 8.2 L0.51 4.61 L2.05 2.05 L4.61 0.51 L8.2 0" stroke="none" stroke-width="0" fill="#FFF"></path><path d="M8.2 0 M8.2 0 C30.85 0, 53.5 0, 73.8 0 M8.2 0 C34.29 0, 60.39 0, 73.8 0 M73.8 0 C79.27 0, 82 2.73, 82 8.2 M73.8 0 C79.27 0, 82 2.73, 82 8.2 M82 8.2 C82 21.68, 82 35.15, 82 73.8 M82 8.2 C82 24.84, 82 41.48, 82 73.8 M82 73.8 C82 79.27, 79.27 82, 73.8 82 M82 73.8 C82 79.27, 79.27 82, 73.8 82 M73.8 82 C59.97 82, 46.14 82, 8.2 82 M73.8 82 C50.94 82, 28.08 82, 8.2 82 M8.2 82 C2.73 82, 0 79.27, 0 73.8 M8.2 82 C2.73 82, 0 79.27, 0 73.8 M0 73.8 C0 48.06, 0 22.32, 0 8.2 M0 73.8 C0 60.13, 0 46.46, 0 8.2 M0 8.2 C0 2.73, 2.73 0, 8.2 0 M0 8.2 C0 2.73, 2.73 0, 8.2 0" stroke="#202124" stroke-width="1" fill="none"></path></g><g transform="translate(710 130) rotate(0 26 18)"><text x="26" y="14" font-family="Helvetica, Segoe UI Emoji" font-size="16px" fill="#202124" text-anchor="middle" style="white-space: pre;" direction="ltr">Update</text><text x="26" y="32" font-family="Helvetica, Segoe UI Emoji" font-size="16px" fill="#202124" text-anchor="middle" style="white-space: pre;" direction="ltr">Scripts</text></g><g stroke-linecap="round"><g transform="translate(719 106) rotate(0 12 12)" fill-rule="evenodd"><path d="M0 0 L24 0 L24 24 L0 24 L0 0" stroke="none" stroke-width="0" fill="#00000000" fill-rule="evenodd"></path><path d="M0 0 C4.82 0, 9.63 0, 24 0 M0 0 C6.74 0, 13.48 0, 24 0 M24 0 C24 5.46, 24 10.91, 24 24 M24 0 C24 5.57, 24 11.15, 24 24 M24 24 C17.37 24, 10.74 24, 0 24 M24 24 C18.72 24, 13.45 24, 0 24 M0 24 C0 14.65, 0 5.3, 0 0 M0 24 C0 18.79, 0 13.58, 0 0 M0 0 C0 0, 0 0, 0 0 M0 0 C0 0, 0 0, 0 0" stroke="#00000000" stroke-width="1" fill="none"></path></g></g><g stroke-linecap="round"><g transform="translate(732.7826995849609 121.17189979553223) rotate(0 4.058799743652344 1.9374003410339355)" fill-rule="evenodd"><path d="M0 0 L2.12 -2.12 L8.12 3.87 L6 6 L0 0" stroke="none" stroke-width="0" fill="#000" fill-rule="evenodd"></path><path d="M0 0 C0.6 -0.6, 1.2 -1.2, 2.12 -2.12 M0 0 C0.83 -0.83, 1.65 -1.65, 2.12 -2.12 M2.12 -2.12 C3.59 -0.65, 5.06 0.81, 8.12 3.87 M2.12 -2.12 C3.78 -0.47, 5.43 1.19, 8.12 3.87 M8.12 3.87 C7.42 4.57, 6.72 5.27, 6 6 M8.12 3.87 C7.28 4.71, 6.45 5.54, 6 6 M6 6 C3.63 3.63, 1.27 1.27, 0 0 M6 6 C3.93 3.93, 1.86 1.86, 0 0 M0 0 C0 0, 0 0, 0 0 M0 0 C0 0, 0 0, 0 0" stroke="#00000000" stroke-width="1" fill="none"></path></g></g><g stroke-linecap="round"><g transform="translate(736.5 116) rotate(0 -5.950000047683716 1.8862498998641968)" fill-rule="evenodd"><path d="M0 0 L0 0 L1.36 -0.28 L2.47 -1.03 L3.22 -2.14 L3.5 -3.5 L3.39 -4.34 L3.09 -5.1 L0.39 -2.4 L-1.1 -3.89 L1.6 -6.59 L1.6 -6.59 L0.84 -6.89 L0 -7 L-1.36 -6.72 L-2.47 -5.97 L-3.22 -4.86 L-3.5 -3.5 L-3.29 -2.34 L-5.14 -0.49 L-6.92 -2.27 L-6.21 -2.98 L-7.62 -4.39 L-5.5 -6.51 L-5.5 -6.51 L-6.49 -7.17 L-7.62 -7.39 L-8.75 -7.17 L-9.74 -6.51 L-13.28 -2.97 L-11.87 -1.56 L-14.69 -1.56 L-15.4 -0.85 L-11.86 2.69 L-11.15 1.98 L-11.15 -0.85 L-9.74 0.56 L-9.03 -0.15 L-7.25 1.63 L-14.66 9.04 L-12.54 11.16 L-1.16 -0.21 L-1.16 -0.21 L0 0 L0 0" stroke="none" stroke-width="0" fill="#000" fill-rule="evenodd"></path><path d="M0 0 C0 0, 0 0, 0 0 M0 0 C0 0, 0 0, 0 0 M0 0 C0.3 -0.06, 0.6 -0.12, 1.36 -0.28 M0 0 C0.34 -0.07, 0.68 -0.14, 1.36 -0.28 M1.36 -0.28 C1.71 -0.51, 2.07 -0.75, 2.47 -1.03 M1.36 -0.28 C1.71 -0.51, 2.07 -0.75, 2.47 -1.03 M2.47 -1.03 C2.69 -1.35, 2.91 -1.67, 3.22 -2.14 M2.47 -1.03 C2.62 -1.25, 2.77 -1.47, 3.22 -2.14 M3.22 -2.14 C3.29 -2.48, 3.36 -2.82, 3.5 -3.5 M3.22 -2.14 C3.31 -2.58, 3.4 -3.02, 3.5 -3.5 M3.5 -3.5 C3.46 -3.79, 3.42 -4.08, 3.39 -4.34 M3.5 -3.5 C3.46 -3.77, 3.43 -4.03, 3.39 -4.34 M3.39 -4.34 C3.28 -4.63, 3.16 -4.92, 3.09 -5.1 M3.39 -4.34 C3.28 -4.63, 3.16 -4.91, 3.09 -5.1 M3.09 -5.1 C2.36 -4.37, 1.64 -3.65, 0.39 -2.4 M3.09 -5.1 C2.48 -4.49, 1.87 -3.88, 0.39 -2.4 M0.39 -2.4 C0 -2.79, -0.39 -3.18, -1.1 -3.89 M0.39 -2.4 C-0.02 -2.81, -0.44 -3.23, -1.1 -3.89 M-1.1 -3.89 C-0.05 -4.94, 0.99 -5.98, 1.6 -6.59 M-1.1 -3.89 C-0.02 -4.97, 1.05 -6.04, 1.6 -6.59 M1.6 -6.59 C1.6 -6.59, 1.6 -6.59, 1.6 -6.59 M1.6 -6.59 C1.6 -6.59, 1.6 -6.59, 1.6 -6.59 M1.6 -6.59 C1.4 -6.67, 1.19 -6.75, 0.84 -6.89 M1.6 -6.59 C1.32 -6.7, 1.04 -6.81, 0.84 -6.89 M0.84 -6.89 C0.58 -6.92, 0.32 -6.96, 0 -7 M0.84 -6.89 C0.6 -6.92, 0.36 -6.95, 0 -7 M0 -7 C-0.44 -6.91, -0.88 -6.82, -1.36 -6.72 M0 -7 C-0.45 -6.91, -0.89 -6.82, -1.36 -6.72 M-1.36 -6.72 C-1.8 -6.43, -2.24 -6.13, -2.47 -5.97 M-1.36 -6.72 C-1.67 -6.52, -1.97 -6.31, -2.47 -5.97 M-2.47 -5.97 C-2.63 -5.74, -2.78 -5.51, -3.22 -4.86 M-2.47 -5.97 C-2.71 -5.62, -2.96 -5.26, -3.22 -4.86 M-3.22 -4.86 C-3.3 -4.48, -3.38 -4.09, -3.5 -3.5 M-3.22 -4.86 C-3.3 -4.5, -3.37 -4.14, -3.5 -3.5 M-3.5 -3.5 C-3.45 -3.24, -3.41 -2.99, -3.29 -2.34 M-3.5 -3.5 C-3.45 -3.21, -3.4 -2.92, -3.29 -2.34 M-3.29 -2.34 C-3.92 -1.71, -4.54 -1.09, -5.14 -0.49 M-3.29 -2.34 C-3.92 -1.71, -4.54 -1.09, -5.14 -0.49 M-5.14 -0.49 C-5.69 -1.04, -6.23 -1.58, -6.92 -2.27 M-5.14 -0.49 C-5.62 -0.97, -6.11 -1.46, -6.92 -2.27 M-6.92 -2.27 C-6.65 -2.54, -6.38 -2.81, -6.21 -2.98 M-6.92 -2.27 C-6.75 -2.44, -6.59 -2.6, -6.21 -2.98 M-6.21 -2.98 C-6.57 -3.34, -6.92 -3.69, -7.62 -4.39 M-6.21 -2.98 C-6.5 -3.27, -6.79 -3.56, -7.62 -4.39 M-7.62 -4.39 C-7.05 -4.96, -6.48 -5.53, -5.5 -6.51 M-7.62 -4.39 C-6.9 -5.11, -6.19 -5.82, -5.5 -6.51 M-5.5 -6.51 C-5.5 -6.51, -5.5 -6.51, -5.5 -6.51 M-5.5 -6.51 C-5.5 -6.51, -5.5 -6.51, -5.5 -6.51 M-5.5 -6.51 C-5.8 -6.71, -6.1 -6.91, -6.49 -7.17 M-5.5 -6.51 C-5.8 -6.71, -6.11 -6.91, -6.49 -7.17 M-6.49 -7.17 C-6.82 -7.23, -7.14 -7.29, -7.62 -7.39 M-6.49 -7.17 C-6.87 -7.24, -7.24 -7.31, -7.62 -7.39 M-7.62 -7.39 C-7.88 -7.34, -8.14 -7.29, -8.75 -7.17 M-7.62 -7.39 C-7.89 -7.34, -8.16 -7.28, -8.75 -7.17 M-8.75 -7.17 C-9.12 -6.92, -9.49 -6.68, -9.74 -6.51 M-8.75 -7.17 C-8.99 -7.01, -9.23 -6.85, -9.74 -6.51 M-9.74 -6.51 C-10.6 -5.65, -11.46 -4.79, -13.28 -2.97 M-9.74 -6.51 C-10.8 -5.45, -11.86 -4.39, -13.28 -2.97 M-13.28 -2.97 C-12.86 -2.55, -12.43 -2.12, -11.87 -1.56 M-13.28 -2.97 C-12.89 -2.58, -12.5 -2.19, -11.87 -1.56 M-11.87 -1.56 C-12.92 -1.56, -13.96 -1.56, -14.69 -1.56 M-11.87 -1.56 C-12.73 -1.56, -13.59 -1.56, -14.69 -1.56 M-14.69 -1.56 C-14.89 -1.36, -15.09 -1.16, -15.4 -0.85 M-14.69 -1.56 C-14.93 -1.32, -15.17 -1.08, -15.4 -0.85 M-15.4 -0.85 C-14.35 0.2, -13.31 1.24, -11.86 2.69 M-15.4 -0.85 C-14.23 0.32, -13.06 1.49, -11.86 2.69 M-11.86 2.69 C-11.6 2.43, -11.35 2.18, -11.15 1.98 M-11.86 2.69 C-11.59 2.42, -11.32 2.15, -11.15 1.98 M-11.15 1.98 C-11.15 1.03, -11.15 0.08, -11.15 -0.85 M-11.15 1.98 C-11.15 1.11, -11.15 0.25, -11.15 -0.85 M-11.15 -0.85 C-10.82 -0.52, -10.49 -0.19, -9.74 0.56 M-11.15 -0.85 C-10.86 -0.56, -10.57 -0.27, -9.74 0.56 M-9.74 0.56 C-9.56 0.38, -9.37 0.19, -9.03 -0.15 M-9.74 0.56 C-9.59 0.41, -9.43 0.25, -9.03 -0.15 M-9.03 -0.15 C-8.61 0.27, -8.18 0.7, -7.25 1.63 M-9.03 -0.15 C-8.53 0.35, -8.03 0.85, -7.25 1.63 M-7.25 1.63 C-9.25 3.63, -11.26 5.64, -14.66 9.04 M-7.25 1.63 C-9.52 3.9, -11.78 6.16, -14.66 9.04 M-14.66 9.04 C-13.91 9.79, -13.16 10.54, -12.54 11.16 M-14.66 9.04 C-13.97 9.73, -13.27 10.43, -12.54 11.16 M-12.54 11.16 C-9.97 8.59, -7.39 6.02, -1.16 -0.21 M-12.54 11.16 C-9.44 8.06, -6.33 4.96, -1.16 -0.21 M-1.16 -0.21 C-1.16 -0.21, -1.16 -0.21, -1.16 -0.21 M-1.16 -0.21 C-1.16 -0.21, -1.16 -0.21, -1.16 -0.21 M-1.16 -0.21 C-0.9 -0.16, -0.65 -0.12, 0 0 M-1.16 -0.21 C-0.84 -0.15, -0.53 -0.1, 0 0 M0 0 C0 0, 0 0, 0 0 M0 0 C0 0, 0 0, 0 0 M0 0 C0 0, 0 0, 0 0 M0 0 C0 0, 0 0, 0 0" stroke="#00000000" stroke-width="1" fill="none"></path></g></g><g stroke-linecap="round" transform="translate(210 470) rotate(0 226.41509433962256 100)"><path d="M20 0 L432.83 0 L441.58 1.25 L445.02 2.81 L450.02 7.81 L451.58 11.25 L452.83 20 L452.83 180 L451.58 188.75 L450.02 192.19 L445.02 197.19 L441.58 198.75 L432.83 200 L20 200 L11.25 198.75 L7.81 197.19 L2.81 192.19 L1.25 188.75 L0 180 L0 20 L1.25 11.25 L5 5 L11.25 1.25 L20 0" stroke="none" stroke-width="0" fill="#FFF"></path><path d="M20 0 M20 0 C137.99 0, 255.99 0, 432.83 0 M20 0 C165.16 0, 310.32 0, 432.83 0 M432.83 0 C446.16 0, 452.83 6.67, 452.83 20 M432.83 0 C446.16 0, 452.83 6.67, 452.83 20 M452.83 20 C452.83 59.2, 452.83 98.4, 452.83 180 M452.83 20 C452.83 65.55, 452.83 111.1, 452.83 180 M452.83 180 C452.83 193.33, 446.16 200, 432.83 200 M452.83 180 C452.83 193.33, 446.16 200, 432.83 200 M432.83 200 C269.03 200, 105.23 200, 20 200 M432.83 200 C322.49 200, 212.16 200, 20 200 M20 200 C6.67 200, 0 193.33, 0 180 M20 200 C6.67 200, 0 193.33, 0 180 M0 180 C0 133.28, 0 86.55, 0 20 M0 180 C0 134.09, 0 88.18, 0 20 M0 20 C0 6.67, 6.67 0, 20 0 M0 20 C0 6.67, 6.67 0, 20 0" stroke="#202124" stroke-width="1" fill="none"></path></g><g transform="translate(236.6370699223085 496.63706992230857) rotate(0 85.23862375138734 18.64594894561597)"><text x="0" y="28.29189789123196" font-family="GoogleSans_Medium, Segoe UI Emoji" font-size="30.188679245283016px" fill="#1A73E8" text-anchor="start" style="white-space: pre;" direction="ltr">GKE Cluster</text></g><g stroke-linecap="round"><g transform="translate(610.3098307915454 501.9523336752406) rotate(0 -0.011918229876812347 21.360475949521316)" fill-rule="evenodd"><path d="M0 0 L-18.82 10.69 L-18.82 32.02 L-0.04 42.72 L18.79 31.95 L18.79 10.49 L0 0" stroke="none" stroke-width="0" fill="#aecbfa" fill-rule="evenodd"></path><path d="M0 0 C-4.98 2.83, -9.97 5.66, -18.82 10.69 M0 0 C-5.44 3.09, -10.88 6.18, -18.82 10.69 M-18.82 10.69 C-18.82 17.05, -18.82 23.41, -18.82 32.02 M-18.82 10.69 C-18.82 15.69, -18.82 20.68, -18.82 32.02 M-18.82 32.02 C-12.03 35.89, -5.24 39.75, -0.04 42.72 M-18.82 32.02 C-12.24 35.77, -5.67 39.51, -0.04 42.72 M-0.04 42.72 C4.26 40.26, 8.55 37.81, 18.79 31.95 M-0.04 42.72 C6.67 38.89, 13.37 35.05, 18.79 31.95 M18.79 31.95 C18.79 27.1, 18.79 22.26, 18.79 10.49 M18.79 31.95 C18.79 25.79, 18.79 19.63, 18.79 10.49 M18.79 10.49 C11.31 6.31, 3.84 2.14, 0 0 M18.79 10.49 C12.58 7.02, 6.37 3.55, 0 0 M0 0 C0 0, 0 0, 0 0 M0 0 C0 0, 0 0, 0 0" stroke="#00000000" stroke-width="1" fill="none"></path></g></g><g stroke-linecap="round"><g transform="translate(610.3217463223439 506.5998011715007) rotate(0 -0.02383286098267945 16.707050800323486)" fill-rule="evenodd"><path d="M0 0 L-14.78 8.4 L-14.78 25.01 L-0.06 33.41 L14.73 24.95 L14.73 8.22 L0 0" stroke="none" stroke-width="0" fill="#fff" fill-rule="evenodd"></path><path d="M0 0 C-4.07 2.32, -8.15 4.63, -14.78 8.4 M0 0 C-3.08 1.75, -6.15 3.5, -14.78 8.4 M-14.78 8.4 C-14.78 12.8, -14.78 17.2, -14.78 25.01 M-14.78 8.4 C-14.78 12.75, -14.78 17.1, -14.78 25.01 M-14.78 25.01 C-9.02 28.3, -3.27 31.58, -0.06 33.41 M-14.78 25.01 C-10.5 27.45, -6.23 29.89, -0.06 33.41 M-0.06 33.41 C3.74 31.24, 7.55 29.06, 14.73 24.95 M-0.06 33.41 C3.91 31.14, 7.88 28.87, 14.73 24.95 M14.73 24.95 C14.73 21.26, 14.73 17.57, 14.73 8.22 M14.73 24.95 C14.73 20.78, 14.73 16.61, 14.73 8.22 M14.73 8.22 C11.38 6.35, 8.03 4.48, 0 0 M14.73 8.22 C9.91 5.53, 5.08 2.84, 0 0 M0 0 C0 0, 0 0, 0 0 M0 0 C0 0, 0 0, 0 0" stroke="#00000000" stroke-width="1" fill="none"></path></g></g><g stroke-linecap="round"><g transform="translate(611.2393231661815 523.8192659054163) rotate(0 4.176762418926899 2.4905654619324764)" fill-rule="evenodd"><path d="M0 0 L0 9.93 L8.35 5.03 L8.35 -4.95 L0 0" stroke="none" stroke-width="0" fill="#4285f4" fill-rule="evenodd"></path><path d="M0 0 C0 2.65, 0 5.29, 0 9.93 M0 0 C0 3.44, 0 6.88, 0 9.93 M0 9.93 C3.06 8.13, 6.13 6.34, 8.35 5.03 M0 9.93 C2.16 8.66, 4.31 7.4, 8.35 5.03 M8.35 5.03 C8.35 2.12, 8.35 -0.79, 8.35 -4.95 M8.35 5.03 C8.35 1.53, 8.35 -1.96, 8.35 -4.95 M8.35 -4.95 C6.47 -3.83, 4.58 -2.71, 0 0 M8.35 -4.95 C5.52 -3.27, 2.69 -1.59, 0 0 M0 0 C0 0, 0 0, 0 0 M0 0 C0 0, 0 0, 0 0" stroke="#00000000" stroke-width="1" fill="none"></path></g></g><g stroke-linecap="round"><g transform="translate(601.7537239362607 517.2651445640709) rotate(0 8.544190424793157 0.017874645736981165)" fill-rule="evenodd"><path d="M0 0 L8.47 4.91 L17.09 -0.01 L8.47 -4.87 L0 0" stroke="none" stroke-width="0" fill="#aecbfa" fill-rule="evenodd"></path><path d="M0 0 C2.03 1.17, 4.05 2.35, 8.47 4.91 M0 0 C2.69 1.56, 5.37 3.11, 8.47 4.91 M8.47 4.91 C10.8 3.58, 13.12 2.25, 17.09 -0.01 M8.47 4.91 C10.58 3.7, 12.69 2.5, 17.09 -0.01 M17.09 -0.01 C14.07 -1.71, 11.06 -3.41, 8.47 -4.87 M17.09 -0.01 C14.98 -1.2, 12.87 -2.39, 8.47 -4.87 M8.47 -4.87 C5.16 -2.97, 1.84 -1.06, 0 0 M8.47 -4.87 C6.12 -3.52, 3.76 -2.16, 0 0 M0 0 C0 0, 0 0, 0 0 M0 0 C0 0, 0 0, 0 0" stroke="#00000000" stroke-width="1" fill="none"></path></g></g><g stroke-linecap="round"><g transform="translate(600.9553122970292 518.9215490952977) rotate(0 4.117179816623889 7.412115133033609)" fill-rule="evenodd"><path d="M0 0 L8.29 4.96 L8.29 14.82 L-0.06 9.77 L0 0" stroke="none" stroke-width="0" fill="#669df6" fill-rule="evenodd"></path><path d="M0 0 C2.96 1.77, 5.92 3.54, 8.29 4.96 M0 0 C1.74 1.04, 3.48 2.08, 8.29 4.96 M8.29 4.96 C8.29 8.21, 8.29 11.46, 8.29 14.82 M8.29 4.96 C8.29 7.66, 8.29 10.35, 8.29 14.82 M8.29 14.82 C6.6 13.8, 4.9 12.77, -0.06 9.77 M8.29 14.82 C6.07 13.48, 3.85 12.14, -0.06 9.77 M-0.06 9.77 C-0.05 7.46, -0.03 5.16, 0 0 M-0.06 9.77 C-0.05 7.47, -0.03 5.17, 0 0 M0 0 C0 0, 0 0, 0 0 M0 0 C0 0, 0 0, 0 0" stroke="#00000000" stroke-width="1" fill="none"></path></g></g><g stroke-linecap="round"><g transform="translate(611.2393231661815 513.5829198585367) rotate(0 -0.9592839007107727 -3.491559343517963)" fill-rule="evenodd"><path d="M0 0 L0 -6.47 L-0.92 -6.98 L-1.92 -6.4 L-1.92 0 L-1.24 -3.58" stroke="none" stroke-width="0" fill="#aecbfa" fill-rule="evenodd"></path><path d="M0 0 C0 -2.36, 0 -4.72, 0 -6.47 M0 0 C0 -1.64, 0 -3.27, 0 -6.47 M0 -6.47 C-0.26 -6.61, -0.51 -6.76, -0.92 -6.98 M0 -6.47 C-0.25 -6.61, -0.49 -6.74, -0.92 -6.98 M-0.92 -6.98 C-1.15 -6.85, -1.38 -6.71, -1.92 -6.4 M-0.92 -6.98 C-1.18 -6.83, -1.44 -6.68, -1.92 -6.4 M-1.92 -6.4 C-1.92 -4, -1.92 -1.6, -1.92 0 M-1.92 -6.4 C-1.92 -4.9, -1.92 -3.39, -1.92 0 M-1.92 0 C-1.75 -0.89, -1.58 -1.79, -1.24 -3.58 M-1.92 0 C-1.74 -0.92, -1.57 -1.84, -1.24 -3.58 M-1.24 -3.58 C-0.99 -2.85, -0.73 -2.12, 0 0 M-1.24 -3.58 C-0.99 -2.85, -0.73 -2.12, 0 0" stroke="#00000000" stroke-width="1" fill="none"></path></g></g><g stroke-linecap="round"><g transform="translate(625.0506433450951 530.7547148218696) rotate(0 -3.837139201614093 -1.2571973620720485)" fill-rule="evenodd"><path d="M0 0 L-6.78 -3.94 L-7.67 -2.4 L-1.1 1.43 L0 0.8 L0 0" stroke="none" stroke-width="0" fill="#4285f4" fill-rule="evenodd"></path><path d="M0 0 C-1.45 -0.84, -2.9 -1.69, -6.78 -3.94 M0 0 C-2.05 -1.19, -4.09 -2.38, -6.78 -3.94 M-6.78 -3.94 C-7.01 -3.54, -7.24 -3.14, -7.67 -2.4 M-6.78 -3.94 C-7.11 -3.38, -7.43 -2.81, -7.67 -2.4 M-7.67 -2.4 C-5.36 -1.05, -3.05 0.29, -1.1 1.43 M-7.67 -2.4 C-6 -1.42, -4.32 -0.44, -1.1 1.43 M-1.1 1.43 C-0.78 1.25, -0.47 1.07, 0 0.8 M-1.1 1.43 C-0.78 1.25, -0.46 1.06, 0 0.8 M0 0.8 C0 0.59, 0 0.37, 0 0 M0 0.8 C0 0.6, 0 0.41, 0 0 M0 0 C0 0, 0 0, 0 0 M0 0 C0 0, 0 0, 0 0" stroke="#00000000" stroke-width="1" fill="none"></path></g></g><g stroke-linecap="round"><g transform="translate(602.0754711582974 526.8460770373075) rotate(0 -2.806354918569866 2.687188814271167)" fill-rule="evenodd"><path d="M0 0 L-6.53 3.93 L-6.53 4.77 L-5.47 5.37 L0.92 1.54 L0 0" stroke="none" stroke-width="0" fill="#669df6" fill-rule="evenodd"></path><path d="M0 0 C-1.91 1.15, -3.82 2.3, -6.53 3.93 M0 0 C-1.4 0.84, -2.8 1.69, -6.53 3.93 M-6.53 3.93 C-6.53 4.1, -6.53 4.28, -6.53 4.77 M-6.53 3.93 C-6.53 4.18, -6.53 4.43, -6.53 4.77 M-6.53 4.77 C-6.28 4.91, -6.04 5.05, -5.47 5.37 M-6.53 4.77 C-6.26 4.92, -5.98 5.08, -5.47 5.37 M-5.47 5.37 C-3.5 4.19, -1.53 3.01, 0.92 1.54 M-5.47 5.37 C-4.13 4.57, -2.78 3.76, 0.92 1.54 M0.92 1.54 C0.67 1.13, 0.43 0.71, 0 0 M0.92 1.54 C0.72 1.21, 0.52 0.87, 0 0 M0 0 C0 0, 0 0, 0 0 M0 0 C0 0, 0 0, 0 0" stroke="#00000000" stroke-width="1" fill="none"></path></g></g><g stroke-linecap="round" transform="translate(250 550) rotate(0 90 50)"><path d="M10 0 M10 0 C56.32 0, 102.64 0, 170 0 M10 0 C52.34 0, 94.69 0, 170 0 M170 0 C176.67 0, 180 3.33, 180 10 M170 0 C176.67 0, 180 3.33, 180 10 M180 10 C180 26.09, 180 42.17, 180 90 M180 10 C180 30.36, 180 50.71, 180 90 M180 90 C180 96.67, 176.67 100, 170 100 M180 90 C180 96.67, 176.67 100, 170 100 M170 100 C122.88 100, 75.76 100, 10 100 M170 100 C108.92 100, 47.84 100, 10 100 M10 100 C3.33 100, 0 96.67, 0 90 M10 100 C3.33 100, 0 96.67, 0 90 M0 90 C0 61.63, 0 33.27, 0 10 M0 90 C0 73.89, 0 57.78, 0 10 M0 10 C0 3.33, 3.33 0, 10 0 M0 10 C0 3.33, 3.33 0, 10 0" stroke="#000000" stroke-width="2" fill="none"></path></g><g transform="translate(310 570) rotate(0 27 9)"><text x="0" y="14" font-family="Helvetica, Segoe UI Emoji" font-size="16px" fill="#000000" text-anchor="start" style="white-space: pre;" direction="ltr">Service</text></g><g stroke-linecap="round" transform="translate(450 550) rotate(0 90 50)"><path d="M10 0 M10 0 C47.85 0, 85.71 0, 170 0 M10 0 C71.05 0, 132.11 0, 170 0 M170 0 C176.67 0, 180 3.33, 180 10 M170 0 C176.67 0, 180 3.33, 180 10 M180 10 C180 29.27, 180 48.54, 180 90 M180 10 C180 34.38, 180 58.77, 180 90 M180 90 C180 96.67, 176.67 100, 170 100 M180 90 C180 96.67, 176.67 100, 170 100 M170 100 C114.46 100, 58.92 100, 10 100 M170 100 C123.3 100, 76.6 100, 10 100 M10 100 C3.33 100, 0 96.67, 0 90 M10 100 C3.33 100, 0 96.67, 0 90 M0 90 C0 67.97, 0 45.95, 0 10 M0 90 C0 58, 0 26.01, 0 10 M0 10 C0 3.33, 3.33 0, 10 0 M0 10 C0 3.33, 3.33 0, 10 0" stroke="#000000" stroke-width="2" fill="none"></path></g><g transform="translate(530 570) rotate(0 13.5 9)"><text x="0" y="14" font-family="Helvetica, Segoe UI Emoji" font-size="16px" fill="#000000" text-anchor="start" style="white-space: pre;" direction="ltr">Job</text></g><g stroke-linecap="round"><g transform="translate(730 190) rotate(0 -90 140)"><path d="M0 0 C0 44.84, 0 89.68, 0 120 M0 0 C0 45.32, 0 90.65, 0 120 M0 120 C-47.84 120, -95.68 120, -180 120 M0 120 C-70.4 120, -140.8 120, -180 120 M-180 120 C-180 159.67, -180 199.35, -180 280 M-180 120 C-180 160.95, -180 201.91, -180 280" stroke="#202124" stroke-width="1" fill="none"></path></g><g transform="translate(730 190) rotate(0 -90 140)"><path d="M-180 280 L-186.34 266.41 L-173.66 266.41 L-180 280" stroke="none" stroke-width="0" fill="#202124" fill-rule="evenodd"></path><path d="M-180 280 C-182.37 274.92, -184.74 269.84, -186.34 266.41 M-180 280 C-182.39 274.87, -184.79 269.73, -186.34 266.41 M-186.34 266.41 C-182.97 266.41, -179.6 266.41, -173.66 266.41 M-186.34 266.41 C-181.38 266.41, -176.42 266.41, -173.66 266.41 M-173.66 266.41 C-175.23 269.78, -176.8 273.15, -180 280 M-173.66 266.41 C-175.28 269.89, -176.91 273.36, -180 280 M-180 280 C-180 280, -180 280, -180 280 M-180 280 C-180 280, -180 280, -180 280" stroke="#202124" stroke-width="1" fill="none"></path></g></g><g stroke-linecap="round" transform="translate(570 330) rotate(0 16 16)"><path d="M32 16 C32 16.93, 31.92 17.87, 31.76 18.78 C31.6 19.69, 31.35 20.6, 31.04 21.47 C30.72 22.34, 30.32 23.2, 29.86 24 C29.39 24.8, 28.85 25.58, 28.26 26.28 C27.66 26.99, 26.99 27.66, 26.28 28.26 C25.58 28.85, 24.8 29.39, 24 29.86 C23.2 30.32, 22.34 30.72, 21.47 31.04 C20.6 31.35, 19.69 31.6, 18.78 31.76 C17.87 31.92, 16.93 32, 16 32 C15.07 32, 14.13 31.92, 13.22 31.76 C12.31 31.6, 11.4 31.35, 10.53 31.04 C9.66 30.72, 8.8 30.32, 8 29.86 C7.2 29.39, 6.42 28.85, 5.72 28.26 C5.01 27.66, 4.34 26.99, 3.74 26.28 C3.15 25.58, 2.61 24.8, 2.14 24 C1.68 23.2, 1.28 22.34, 0.96 21.47 C0.65 20.6, 0.4 19.69, 0.24 18.78 C0.08 17.87, 0 16.93, 0 16 C0 15.07, 0.08 14.13, 0.24 13.22 C0.4 12.31, 0.65 11.4, 0.96 10.53 C1.28 9.66, 1.68 8.8, 2.14 8 C2.61 7.2, 3.15 6.42, 3.74 5.72 C4.34 5.01, 5.01 4.34, 5.72 3.74 C6.42 3.15, 7.2 2.61, 8 2.14 C8.8 1.68, 9.66 1.28, 10.53 0.96 C11.4 0.65, 12.31 0.4, 13.22 0.24 C14.13 0.08, 15.07 0, 16 0 C16.93 0, 17.87 0.08, 18.78 0.24 C19.69 0.4, 20.6 0.65, 21.47 0.96 C22.34 1.28, 23.2 1.68, 24 2.14 C24.8 2.61, 25.58 3.15, 26.28 3.74 C26.99 4.34, 27.66 5.01, 28.26 5.72 C28.85 6.42, 29.39 7.2, 29.86 8 C30.32 8.8, 30.72 9.66, 31.04 10.53 C31.35 11.4, 31.6 12.31, 31.76 13.22 C31.92 14.13, 31.96 15.54, 32 16 C32.04 16.46, 32.04 15.54, 32 16" stroke="none" stroke-width="0" fill="#202124"></path><path d="M32 16 C32 16.93, 31.92 17.87, 31.76 18.78 C31.6 19.69, 31.35 20.6, 31.04 21.47 C30.72 22.34, 30.32 23.2, 29.86 24 C29.39 24.8, 28.85 25.58, 28.26 26.28 C27.66 26.99, 26.99 27.66, 26.28 28.26 C25.58 28.85, 24.8 29.39, 24 29.86 C23.2 30.32, 22.34 30.72, 21.47 31.04 C20.6 31.35, 19.69 31.6, 18.78 31.76 C17.87 31.92, 16.93 32, 16 32 C15.07 32, 14.13 31.92, 13.22 31.76 C12.31 31.6, 11.4 31.35, 10.53 31.04 C9.66 30.72, 8.8 30.32, 8 29.86 C7.2 29.39, 6.42 28.85, 5.72 28.26 C5.01 27.66, 4.34 26.99, 3.74 26.28 C3.15 25.58, 2.61 24.8, 2.14 24 C1.68 23.2, 1.28 22.34, 0.96 21.47 C0.65 20.6, 0.4 19.69, 0.24 18.78 C0.08 17.87, 0 16.93, 0 16 C0 15.07, 0.08 14.13, 0.24 13.22 C0.4 12.31, 0.65 11.4, 0.96 10.53 C1.28 9.66, 1.68 8.8, 2.14 8 C2.61 7.2, 3.15 6.42, 3.74 5.72 C4.34 5.01, 5.01 4.34, 5.72 3.74 C6.42 3.15, 7.2 2.61, 8 2.14 C8.8 1.68, 9.66 1.28, 10.53 0.96 C11.4 0.65, 12.31 0.4, 13.22 0.24 C14.13 0.08, 15.07 0, 16 0 C16.93 0, 17.87 0.08, 18.78 0.24 C19.69 0.4, 20.6 0.65, 21.47 0.96 C22.34 1.28, 23.2 1.68, 24 2.14 C24.8 2.61, 25.58 3.15, 26.28 3.74 C26.99 4.34, 27.66 5.01, 28.26 5.72 C28.85 6.42, 29.39 7.2, 29.86 8 C30.32 8.8, 30.72 9.66, 31.04 10.53 C31.35 11.4, 31.6 12.31, 31.76 13.22 C31.92 14.13, 31.96 15.54, 32 16 C32.04 16.46, 32.04 15.54, 32 16" stroke="#202124" stroke-width="2" fill="none"></path></g><g transform="translate(580.5 338) rotate(0 4.5 8)"><text x="4.5" y="13" font-family="Helvetica, Segoe UI Emoji" font-size="14px" fill="#FFFFFF" text-anchor="middle" style="white-space: pre;" direction="ltr">4</text></g><g stroke-linecap="round"><g transform="translate(330 650) rotate(0 230 0)"><path d="M0 0 C0 16.73, 0 33.46, 0 60 M0 0 C0 15.79, 0 31.59, 0 60 M0 60 C117.78 60, 235.55 60, 440 60 M0 60 C166.61 60, 333.23 60, 440 60 M440 60 C440 23.61, 440 -12.77, 440 -60 M440 60 C440 32.69, 440 5.39, 440 -60 M440 -60 C444.67 -60, 449.35 -60, 460 -60 M440 -60 C445.55 -60, 451.1 -60, 460 -60" stroke="#202124" stroke-width="1" fill="none"></path></g><g transform="translate(330 650) rotate(0 230 0)"><path d="M460 -60 L446.41 -53.66 L446.41 -66.34 L460 -60" stroke="none" stroke-width="0" fill="#202124" fill-rule="evenodd"></path><path d="M460 -60 C456.21 -58.23, 452.42 -56.46, 446.41 -53.66 M460 -60 C456.42 -58.33, 452.84 -56.66, 446.41 -53.66 M446.41 -53.66 C446.41 -57.05, 446.41 -60.45, 446.41 -66.34 M446.41 -53.66 C446.41 -58.46, 446.41 -63.26, 446.41 -66.34 M446.41 -66.34 C450.53 -64.42, 454.65 -62.49, 460 -60 M446.41 -66.34 C449.5 -64.9, 452.59 -63.45, 460 -60 M460 -60 C460 -60, 460 -60, 460 -60 M460 -60 C460 -60, 460 -60, 460 -60" stroke="#202124" stroke-width="1" fill="none"></path></g></g><g stroke-linecap="round"><g transform="translate(770 590) rotate(0 10 -40)"><path d="M0 0 C0 -20.82, 0 -41.63, 0 -80 M0 0 C0 -22.06, 0 -44.13, 0 -80 M0 -80 C4.07 -80, 8.15 -80, 20 -80 M0 -80 C7.64 -80, 15.29 -80, 20 -80" stroke="#202124" stroke-width="1" fill="none"></path></g><g transform="translate(770 590) rotate(0 10 -40)"><path d="M20 -80 L6.41 -73.66 L6.41 -86.34 L20 -80" stroke="none" stroke-width="0" fill="#202124" fill-rule="evenodd"></path><path d="M20 -80 C16.46 -78.35, 12.93 -76.7, 6.41 -73.66 M20 -80 C16.25 -78.25, 12.5 -76.5, 6.41 -73.66 M6.41 -73.66 C6.41 -76.24, 6.41 -78.82, 6.41 -86.34 M6.41 -73.66 C6.41 -78.51, 6.41 -83.35, 6.41 -86.34 M6.41 -86.34 C10.91 -84.24, 15.42 -82.14, 20 -80 M6.41 -86.34 C11.83 -83.81, 17.25 -81.28, 20 -80 M20 -80 C20 -80, 20 -80, 20 -80 M20 -80 C20 -80, 20 -80, 20 -80" stroke="#202124" stroke-width="1" fill="none"></path></g></g><g stroke-linecap="round"><g transform="translate(630 590) rotate(0 80 -50)"><path d="M0 0 C22.87 0, 45.75 0, 60 0 M0 0 C16.04 0, 32.08 0, 60 0 M60 0 C60 -38.79, 60 -77.58, 60 -100 M60 0 C60 -37.64, 60 -75.28, 60 -100 M60 -100 C82.63 -100, 105.26 -100, 160 -100 M60 -100 C93.73 -100, 127.46 -100, 160 -100" stroke="#202124" stroke-width="1" fill="none"></path></g><g transform="translate(630 590) rotate(0 80 -50)"><path d="M160 -100 L146.41 -93.66 L146.41 -106.34 L160 -100" stroke="none" stroke-width="0" fill="#202124" fill-rule="evenodd"></path><path d="M160 -100 C154.82 -97.58, 149.63 -95.17, 146.41 -93.66 M160 -100 C156.37 -98.31, 152.73 -96.61, 146.41 -93.66 M146.41 -93.66 C146.41 -98.58, 146.41 -103.5, 146.41 -106.34 M146.41 -93.66 C146.41 -98.43, 146.41 -103.2, 146.41 -106.34 M146.41 -106.34 C149.48 -104.9, 152.56 -103.47, 160 -100 M146.41 -106.34 C150.99 -104.2, 155.58 -102.06, 160 -100 M160 -100 C160 -100, 160 -100, 160 -100 M160 -100 C160 -100, 160 -100, 160 -100" stroke="#202124" stroke-width="1" fill="none"></path></g></g></svg>